<svg xmlns="http://www.w3.org/2000/svg" width="20" height="20" viewBox="0 0 20 20">
  <metadata><?xpacket begin="﻿" id="W5M0MpCehiHzreSzNTczkc9d"?>
<x:xmpmeta xmlns:x="adobe:ns:meta/" x:xmptk="Adobe XMP Core 5.6-c138 79.159824, 2016/09/14-01:09:01        ">
   <rdf:RDF xmlns:rdf="http://www.w3.org/1999/02/22-rdf-syntax-ns#">
      <rdf:Description rdf:about=""/>
   </rdf:RDF>
</x:xmpmeta>
                                                                                                    
                                                                                                    
                                                                                                    
                                                                                                    
                                                                                                    
                                                                                                    
                                                                                                    
                                                                                                    
                                                                                                    
                                                                                                    
                                                                                                    
                                                                                                    
                                                                                                    
                                                                                                    
                                                                                                    
                                                                                                    
                                                                                                    
                                                                                                    
                                                                                                    
                                                                                                    
                           
<?xpacket end="w"?></metadata>
<defs>
    <style>
      .cls-1 {
        fill: #d4754e;
        fill-rule: evenodd;
      }
    </style>
  </defs>
  <path id="形状_18_拷贝" data-name="形状 18 拷贝" class="cls-1" d="M233.306,542.309a9.044,9.044,0,0,0,3.657-2.321v2.345a11.247,11.247,0,0,1-3.319,1.56,9.136,9.136,0,0,1-2.838.316s0.361,0.951.719,1.843c0.115,0.29-.418-0.217-0.418-0.217l-1.024,1.213c0.086,0-.515-1.332-0.647-2.068a22.635,22.635,0,0,1-.46-2.722A7.288,7.288,0,0,0,233.306,542.309Zm0.255,13.678a9.273,9.273,0,0,0,1.584,1.43,7.655,7.655,0,0,0,1.787.647V560a15.332,15.332,0,0,1-3.252-1.8,18.66,18.66,0,0,1-1.918-2.234Zm7-13.678a8.616,8.616,0,0,1-3.594-2.321v2.345a10.118,10.118,0,0,0,3.225,1.56,10.362,10.362,0,0,0,3.057.316,20.346,20.346,0,0,1-1.79,8.675,11.262,11.262,0,0,1-4.523,5.18V560a16.019,16.019,0,0,0,5.657-5.952,26.967,26.967,0,0,0,2.3-11.789A7.288,7.288,0,0,1,240.557,542.309Zm-5.595,13.7H228.05A3.242,3.242,0,0,1,225,552.6a3.384,3.384,0,0,1,2.158-3.258,4.5,4.5,0,0,1,8.7,0,3.384,3.384,0,0,1,2.158,3.258A3.243,3.243,0,0,1,234.962,556.008Zm1.03-4.981c-0.037-.037-0.076-0.072-0.115-0.105l-0.008-.007c-0.038-.031-0.077-0.06-0.117-0.088l-0.018-.012c-0.037-.025-0.075-0.049-0.114-0.071l-0.033-.017c-0.035-.019-0.071-0.038-0.108-0.054l-0.049-.02c-0.033-.014-0.067-0.027-0.1-0.038l-0.068-.02c-0.03-.008-0.059-0.017-0.089-0.023s-0.064-.012-0.1-0.017-0.045-.008-0.069-0.01a1.378,1.378,0,0,0-.171-0.01c-0.018,0-.035,0-0.053,0-0.018-.111-0.04-0.22-0.067-0.327-0.006-.027-0.015-0.052-0.022-0.078-0.022-.081-0.044-0.162-0.07-0.24-0.008-.024-0.018-0.047-0.027-0.07-0.028-.08-0.058-0.16-0.091-0.237-0.008-.019-0.018-0.036-0.026-0.055-0.036-.081-0.074-0.16-0.116-0.237a3.12,3.12,0,0,0-5.645,0c-0.042.077-.08,0.156-0.116,0.237-0.008.019-.018,0.036-0.026,0.055-0.033.077-.063,0.157-0.091,0.237-0.009.023-.019,0.046-0.027,0.07-0.026.078-.049,0.159-0.07,0.24-0.007.026-.016,0.051-0.022,0.078-0.027.107-.049,0.216-0.067,0.327-0.018,0-.23.02-0.25,0.02-0.06,0,.082-0.02.025-0.013-0.023,0-.046.007-0.068,0.01s-0.065.01-.1,0.017-0.059.015-.089,0.023l-0.068.02c-0.034.011-.068,0.024-0.1,0.038l-0.049.02c-0.037.016-.073,0.035-0.108,0.054l-0.033.017c-0.039.022-.077,0.046-0.114,0.071l-0.018.012c-0.04.028-.079,0.057-0.117,0.088l-0.008.007c-0.039.033-.078,0.068-0.115,0.105a2.042,2.042,0,0,0-.589,1.456,1.855,1.855,0,0,0,1.744,1.949h6.59a1.855,1.855,0,0,0,1.745-1.949A2.042,2.042,0,0,0,235.992,551.027Z" transform="translate(-225 -540)"/>
</svg>
