<svg xmlns="http://www.w3.org/2000/svg" width="18" height="20" viewBox="0 0 18 20">
  <metadata><?xpacket begin="﻿" id="W5M0MpCehiHzreSzNTczkc9d"?>
<x:xmpmeta xmlns:x="adobe:ns:meta/" x:xmptk="Adobe XMP Core 5.6-c138 79.159824, 2016/09/14-01:09:01        ">
   <rdf:RDF xmlns:rdf="http://www.w3.org/1999/02/22-rdf-syntax-ns#">
      <rdf:Description rdf:about=""/>
   </rdf:RDF>
</x:xmpmeta>
                                                                                                    
                                                                                                    
                                                                                                    
                                                                                                    
                                                                                                    
                                                                                                    
                                                                                                    
                                                                                                    
                                                                                                    
                                                                                                    
                                                                                                    
                                                                                                    
                                                                                                    
                                                                                                    
                                                                                                    
                                                                                                    
                                                                                                    
                                                                                                    
                                                                                                    
                                                                                                    
                           
<?xpacket end="w"?></metadata>
<defs>
    <style>
      .cls-1 {
        fill: #8375d0;
        fill-rule: evenodd;
      }
    </style>
  </defs>
  <path id="矩形_34" data-name="矩形 34" class="cls-1" d="M563,899h1.313v18.687L563,919V899Zm13.689,0.015L578,899v6h-1.312v-5.985ZM564.181,899h12.725l-0.218,1.313H564.313Zm0.132,18.687L576.7,917.7,578,919H563ZM567,908h4v1h-4v-1Zm0.031,3H571v1h-3.969v-1ZM567,914.01h7v1h-7v-1Zm9.688-1.01L578,912v6.964l-1.312-1.277V913Zm1.01-9.607A6.818,6.818,0,0,1,575,902v1.5a5.525,5.525,0,0,0,2.347,1.25,4.452,4.452,0,0,0,2.086,0A10.755,10.755,0,0,1,578.393,909a9.126,9.126,0,0,1-3.39,3.5V914a11.084,11.084,0,0,0,4.206-3.57A14.12,14.12,0,0,0,581,903.251,6.961,6.961,0,0,1,577.7,903.393Zm-5.39,0A6.818,6.818,0,0,0,575,902v1.5a5.525,5.525,0,0,1-2.347,1.25,4.452,4.452,0,0,1-2.086,0A10.755,10.755,0,0,0,571.613,909a9.126,9.126,0,0,0,3.39,3.5V914a11.084,11.084,0,0,1-4.206-3.57,14.12,14.12,0,0,1-1.791-7.183A6.961,6.961,0,0,0,572.308,903.393Z" transform="translate(-563 -899)"/>
</svg>
