<svg xmlns="http://www.w3.org/2000/svg" width="15" height="18" viewBox="0 0 15 18">
  <metadata><?xpacket begin="﻿" id="W5M0MpCehiHzreSzNTczkc9d"?>
<x:xmpmeta xmlns:x="adobe:ns:meta/" x:xmptk="Adobe XMP Core 5.6-c138 79.159824, 2016/09/14-01:09:01        ">
   <rdf:RDF xmlns:rdf="http://www.w3.org/1999/02/22-rdf-syntax-ns#">
      <rdf:Description rdf:about=""/>
   </rdf:RDF>
</x:xmpmeta>
                                                                                                    
                                                                                                    
                                                                                                    
                                                                                                    
                                                                                                    
                                                                                                    
                                                                                                    
                                                                                                    
                                                                                                    
                                                                                                    
                                                                                                    
                                                                                                    
                                                                                                    
                                                                                                    
                                                                                                    
                                                                                                    
                                                                                                    
                                                                                                    
                                                                                                    
                                                                                                    
                           
<?xpacket end="w"?></metadata>
<defs>
    <style>
      .cls-1 {
        fill: #dabb61;
        fill-rule: evenodd;
      }
    </style>
  </defs>
  <path id="矩形_36_拷贝_3" data-name="矩形 36 拷贝 3" class="cls-1" d="M560,363h1v18h-1V363Zm6,0h1v18h-1V363Zm-5,0h5v1h-5v-1Zm0,16h5v1h-5v-1Zm7-16h1v18h-1V363Zm6,0h1v5h-1v-5Zm-5,0h5v1h-5v-1Zm0,16h5v1h-5v-1Zm5-11h1v13h-1V368Zm-12,0h3v1h-3v-1Zm0,5h3v1h-3v-1Zm8-5h3v1h-3v-1Zm0,5h3v1h-3v-1Z" transform="translate(-560 -363)"/>
</svg>
