<svg xmlns="http://www.w3.org/2000/svg" width="17.969" height="17.031" viewBox="0 0 17.969 17.031">
  <metadata><?xpacket begin="﻿" id="W5M0MpCehiHzreSzNTczkc9d"?>
<x:xmpmeta xmlns:x="adobe:ns:meta/" x:xmptk="Adobe XMP Core 5.6-c138 79.159824, 2016/09/14-01:09:01        ">
   <rdf:RDF xmlns:rdf="http://www.w3.org/1999/02/22-rdf-syntax-ns#">
      <rdf:Description rdf:about=""/>
   </rdf:RDF>
</x:xmpmeta>
                                                                                                    
                                                                                                    
                                                                                                    
                                                                                                    
                                                                                                    
                                                                                                    
                                                                                                    
                                                                                                    
                                                                                                    
                                                                                                    
                                                                                                    
                                                                                                    
                                                                                                    
                                                                                                    
                                                                                                    
                                                                                                    
                                                                                                    
                                                                                                    
                                                                                                    
                                                                                                    
                           
<?xpacket end="w"?></metadata>
<defs>
    <style>
      .cls-1 {
        fill: #4a92ff;
        fill-rule: evenodd;
      }
    </style>
  </defs>
  <path id="矩形_36" data-name="矩形 36" class="cls-1" d="M560.625,730.094H577v0.844H560.625v-0.844Zm8.357,7.9h-4.713v-0.111a1.077,1.077,0,0,1,1.012-1.167H568V734l0.986-.2Zm0,0L574,738h0a1.331,1.331,0,0,0-1.188-1.281H570V734l-1.018-.24V738Zm-6.951-17.028H576a2,2,0,0,1,2,2v8.937a2,2,0,0,1-2,2H562.031a2,2,0,0,1-2-2v-8.937A2,2,0,0,1,562.031,720.969Zm-0.594,1.5h15.157v10.094H561.437V722.469Z" transform="translate(-560.031 -720.969)"/>
</svg>
