<svg xmlns="http://www.w3.org/2000/svg" width="18" height="20" viewBox="0 0 18 20">
  <metadata><?xpacket begin="﻿" id="W5M0MpCehiHzreSzNTczkc9d"?>
<x:xmpmeta xmlns:x="adobe:ns:meta/" x:xmptk="Adobe XMP Core 5.6-c138 79.159824, 2016/09/14-01:09:01        ">
   <rdf:RDF xmlns:rdf="http://www.w3.org/1999/02/22-rdf-syntax-ns#">
      <rdf:Description rdf:about=""/>
   </rdf:RDF>
</x:xmpmeta>
                                                                                                    
                                                                                                    
                                                                                                    
                                                                                                    
                                                                                                    
                                                                                                    
                                                                                                    
                                                                                                    
                                                                                                    
                                                                                                    
                                                                                                    
                                                                                                    
                                                                                                    
                                                                                                    
                                                                                                    
                                                                                                    
                                                                                                    
                                                                                                    
                                                                                                    
                                                                                                    
                           
<?xpacket end="w"?></metadata>
<defs>
    <style>
      .cls-1 {
        fill: #b06cae;
        fill-rule: evenodd;
      }
    </style>
  </defs>
  <path id="形状_22_拷贝" data-name="形状 22 拷贝" class="cls-1" d="M243.76,903.226l0.644-2.579-2.573.967Zm-13.509,0-0.643-2.579,2.573,0.967Zm15.764,6.039c0,5.115-5.453,10.721-9.009,10.721-3.714,0-9.009-5.606-9.009-10.721A9.012,9.012,0,1,1,246.015,909.265Zm-9.009-7.445a7.354,7.354,0,0,0-7.209,7.491c0,4.138,4.237,8.859,7.209,8.859,2.845,0,7.208-4.721,7.208-8.859A7.354,7.354,0,0,0,237.006,901.82Zm3.3,9.589a6.012,6.012,0,0,0,2.041-.761,1.079,1.079,0,0,0,.646-0.862,5.713,5.713,0,0,0-.07-1.483q-0.132-.721-0.293-1.644a8.651,8.651,0,0,1-4.77,3.708l-0.222.481a3.271,3.271,0,0,0,2.668.561h0Zm-4.121-1.042a8.669,8.669,0,0,1-4.805-3.708q-0.141.923-.283,1.644a4.924,4.924,0,0,0-.061,1.483,1.1,1.1,0,0,0,.648.862,5.973,5.973,0,0,0,2.027.761,3.289,3.289,0,0,0,2.676-.561Z" transform="translate(-228 -900)"/>
</svg>
