<svg id="彩色1" xmlns="http://www.w3.org/2000/svg" width="32" height="28" viewBox="0 0 32 28">
  <metadata><?xpacket begin="﻿" id="W5M0MpCehiHzreSzNTczkc9d"?>
<x:xmpmeta xmlns:x="adobe:ns:meta/" x:xmptk="Adobe XMP Core 5.6-c138 79.159824, 2016/09/14-01:09:01        ">
   <rdf:RDF xmlns:rdf="http://www.w3.org/1999/02/22-rdf-syntax-ns#">
      <rdf:Description rdf:about=""/>
   </rdf:RDF>
</x:xmpmeta>
                                                                                                    
                                                                                                    
                                                                                                    
                                                                                                    
                                                                                                    
                                                                                                    
                                                                                                    
                                                                                                    
                                                                                                    
                                                                                                    
                                                                                                    
                                                                                                    
                                                                                                    
                                                                                                    
                                                                                                    
                                                                                                    
                                                                                                    
                                                                                                    
                                                                                                    
                                                                                                    
                           
<?xpacket end="w"?></metadata>
<defs>
    <style>
      .cls-1, .cls-2 {
        fill: #e96157;
        fill-rule: evenodd;
      }

      .cls-2 {
        opacity: 0.15;
      }
    </style>
  </defs>
  <path id="椭圆_26" data-name="椭圆 26" class="cls-1" d="M250.75,125.594a4.8,4.8,0,1,1-4.688,4.8A4.742,4.742,0,0,1,250.75,125.594Zm-0.774,1.606h1.561v4h-1.561v-4Zm0,4.8h1.561v1.6h-1.561V132Zm0.774-8a6.408,6.408,0,1,1-6.25,6.406A6.329,6.329,0,0,1,250.75,124Z" transform="translate(-225 -124)"/>
  <path id="形状_222" data-name="形状 222" class="cls-2" d="M226.572,137.263l4.712-5.463,7.069,9.712,2.356-1.821,3.534,3.642,5.891-4.249,5.3,4.249V150.4H226.572V137.263Z" transform="translate(-225 -124)"/>
  <path id="形状_221" data-name="形状 221" class="cls-1" d="M226.572,136.049l5.3-4.856,6.48,9.712,2.356-1.821,3.534,3.642,5.891-4.249,5.3,4.856v0.607l-5.3-4.856-5.891,4.249-3.534-3.642-2.356,1.821-6.48-9.712-5.3,4.856v-0.607Z" transform="translate(-225 -124)"/>
  <path id="矩形_16" data-name="矩形 16" class="cls-1" d="M225,124.8h1.561v25.6H225V124.8Zm0,25.6h30.439V152H225v-1.6Z" transform="translate(-225 -124)"/>
</svg>
