<svg id="彩色2_拷贝" data-name="彩色2 拷贝" xmlns="http://www.w3.org/2000/svg" width="29" height="32" viewBox="0 0 29 32">
  <metadata><?xpacket begin="﻿" id="W5M0MpCehiHzreSzNTczkc9d"?>
<x:xmpmeta xmlns:x="adobe:ns:meta/" x:xmptk="Adobe XMP Core 5.6-c138 79.159824, 2016/09/14-01:09:01        ">
   <rdf:RDF xmlns:rdf="http://www.w3.org/1999/02/22-rdf-syntax-ns#">
      <rdf:Description rdf:about=""/>
   </rdf:RDF>
</x:xmpmeta>
                                                                                                    
                                                                                                    
                                                                                                    
                                                                                                    
                                                                                                    
                                                                                                    
                                                                                                    
                                                                                                    
                                                                                                    
                                                                                                    
                                                                                                    
                                                                                                    
                                                                                                    
                                                                                                    
                                                                                                    
                                                                                                    
                                                                                                    
                                                                                                    
                                                                                                    
                                                                                                    
                           
<?xpacket end="w"?></metadata>
<defs>
    <style>
      .cls-1 {
        fill: #00bd85;
        fill-rule: evenodd;
      }
    </style>
  </defs>
  <path id="矩形_9_拷贝_4" data-name="矩形 9 拷贝 4" class="cls-1" d="M251.167,182.744h-1.611v-4.1H232.639v24.615h16.917V193.41h1.611V204.9H231.028V177h20.024Zm-15.306,2.461h10.472v0.821H235.861v-0.821Zm0,3.282h10.472v0.821H235.861v-0.821Zm0,3.282h10.472v0.821H235.861v-0.821Zm0.014,3.294h10.469v0.812H235.875v-0.812Z" transform="translate(-227 -177)"/>
  <path id="矩形_9_拷贝_5" data-name="矩形 9 拷贝 5" class="cls-1" d="M231.028,182.744h-2.417v24.615h18.528v-3.282h0.8V209H227V181.1h4.028v1.641Z" transform="translate(-227 -177)"/>
  <path id="矩形_10" data-name="矩形 10" class="cls-1" d="M250.359,181.938a5.735,5.735,0,1,1-5.64,5.734A5.688,5.688,0,0,1,250.359,181.938Zm-3.22,4.908h2.439l-0.022-2.461h1.611l0.016,2.461h2.4v1.641h-2.416v2.462h-1.611v-2.462h-2.417v-1.641Z" transform="translate(-227 -177)"/>
</svg>
