<svg xmlns="http://www.w3.org/2000/svg" width="18" height="18" viewBox="0 0 18 18">
  <metadata><?xpacket begin="﻿" id="W5M0MpCehiHzreSzNTczkc9d"?>
<x:xmpmeta xmlns:x="adobe:ns:meta/" x:xmptk="Adobe XMP Core 5.6-c138 79.159824, 2016/09/14-01:09:01        ">
   <rdf:RDF xmlns:rdf="http://www.w3.org/1999/02/22-rdf-syntax-ns#">
      <rdf:Description rdf:about=""/>
   </rdf:RDF>
</x:xmpmeta>
                                                                                                    
                                                                                                    
                                                                                                    
                                                                                                    
                                                                                                    
                                                                                                    
                                                                                                    
                                                                                                    
                                                                                                    
                                                                                                    
                                                                                                    
                                                                                                    
                                                                                                    
                                                                                                    
                                                                                                    
                                                                                                    
                                                                                                    
                                                                                                    
                                                                                                    
                                                                                                    
                           
<?xpacket end="w"?></metadata>
<defs>
    <style>
      .cls-1 {
        fill: #5dc962;
        fill-rule: evenodd;
      }
    </style>
  </defs>
  <path id="形状_20" data-name="形状 20" class="cls-1" d="M232,739h-3a1.011,1.011,0,0,1-1-1v-7l-1.012.39v6.659a1.97,1.97,0,0,0,1.98,1.959L232,740v-1Zm4-16h-7a1.011,1.011,0,0,0-1,1v7l-1.012.39v-7.443a1.969,1.969,0,0,1,1.98-1.958h7.009Zm-4,16h8a1.015,1.015,0,0,0,1-1h1a1.99,1.99,0,0,1-1.945,2.008L232,740v-1Zm4-16h3.969a1.015,1.015,0,0,1,1,1L241,733l1,1-0.019-10.053a1.958,1.958,0,0,0-1.958-1.958L236,722v1Zm-1.5,3a4.5,4.5,0,1,1-4.5,4.5A4.5,4.5,0,0,1,234.5,726Zm0,1.438a3.047,3.047,0,1,1-3.094,3.046A3.07,3.07,0,0,1,234.5,727.438Zm2.964,6.491,1.049-1.2,5.779,4.366a1.639,1.639,0,0,1,.7.806,0.788,0.788,0,0,1-.81.9,1.819,1.819,0,0,1-.737-0.237Z" transform="translate(-227 -722)"/>
</svg>
