<svg id="彩色4_拷贝_3" data-name="彩色4 拷贝 3" xmlns="http://www.w3.org/2000/svg" width="32" height="28" viewBox="0 0 32 28">
  <metadata><?xpacket begin="﻿" id="W5M0MpCehiHzreSzNTczkc9d"?>
<x:xmpmeta xmlns:x="adobe:ns:meta/" x:xmptk="Adobe XMP Core 5.6-c138 79.159824, 2016/09/14-01:09:01        ">
   <rdf:RDF xmlns:rdf="http://www.w3.org/1999/02/22-rdf-syntax-ns#">
      <rdf:Description rdf:about=""/>
   </rdf:RDF>
</x:xmpmeta>
                                                                                                    
                                                                                                    
                                                                                                    
                                                                                                    
                                                                                                    
                                                                                                    
                                                                                                    
                                                                                                    
                                                                                                    
                                                                                                    
                                                                                                    
                                                                                                    
                                                                                                    
                                                                                                    
                                                                                                    
                                                                                                    
                                                                                                    
                                                                                                    
                                                                                                    
                                                                                                    
                           
<?xpacket end="w"?></metadata>
<defs>
    <style>
      .cls-1 {
        fill: #e77d4e;
        fill-rule: evenodd;
      }
    </style>
  </defs>
  <path id="形状_218_拷贝_2" data-name="形状 218 拷贝 2" class="cls-1" d="M224,233v28h32V233Zm1.6,1.647v1.647H228v-1.647h-2.4Zm4,0v1.647h24.8v-1.647H229.6Zm24.8,2.471H225.6v22.235h28.8V237.118Z" transform="translate(-224 -233)"/>
  <path id="形状_21_副本_3" data-name="形状 21 副本 3" class="cls-1" d="M237.669,245.667c0.133,0.507,1.675.857,1.883,1.031-0.134.51-1.959,0.993-1.513,2.221a2.025,2.025,0,0,0-1.486,1.541c-0.012-.027.053,0.777,0.063,0.747-0.709.053-1.727-.9-2.321-1.076s-2.185.613-2.792,0.525c-0.509-.074.155-0.546-0.1-1.077-0.091-.194,0-0.449-0.1-0.629-0.135-.246-0.556-0.3-0.685-0.554-0.224-.44.721-0.921,0.751-1.452,0.042-.761-1.37-1.268-0.846-2.006,0.3-.417,1.078-0.3,1.308-0.638a1.442,1.442,0,0,1,.818-0.441c0.162-.1.4,0.136,0.6,0.044a2.214,2.214,0,0,0,.3-0.456c0.142-.043.345,0.019,0.47-0.035,0.2-.087.754-1.151,1.041-1.324,0.6-.363.261,0.5,0.747,0.8a3.218,3.218,0,0,1,.711.868,13.515,13.515,0,0,1,1.319,1.086A1.151,1.151,0,0,0,237.669,245.667Zm-1.507.614A1.88,1.88,0,0,0,236,245.9a1.913,1.913,0,0,0-.326-0.257,1.786,1.786,0,0,0-.306-0.265,1.819,1.819,0,0,0-.384-0.126,1.766,1.766,0,0,0-.389-0.1,1.832,1.832,0,0,0-.405.006,1.784,1.784,0,0,0-.384.127,1.823,1.823,0,0,0-.377.156,1.87,1.87,0,0,0-.247.327,1.69,1.69,0,0,0-.252.3,1.755,1.755,0,0,0-.152.366,1.776,1.776,0,0,0-.1.386,1.841,1.841,0,0,0-.048.412,1.951,1.951,0,0,0,.221.358,1.825,1.825,0,0,0,.124.385,1.793,1.793,0,0,0,.306.262,1.7,1.7,0,0,0,.3.255,1.762,1.762,0,0,0,.377.119,1.818,1.818,0,0,0,.375.168,2.067,2.067,0,0,0,.4-0.1,1.977,1.977,0,0,0,.405-0.029,1.949,1.949,0,0,0,.385-0.155,2.052,2.052,0,0,0,.218-0.364,1.78,1.78,0,0,0,.289-0.279,1.8,1.8,0,0,0,.165-0.369,1.834,1.834,0,0,0,.018-0.4,1.673,1.673,0,0,0-.016-0.392A1.944,1.944,0,0,0,236.162,246.281Zm5.8,6.709c0.084,0.3.153,0.627,0.258,0.894a7.335,7.335,0,0,1,.08,2.037,2.212,2.212,0,0,1-.083.891,1.513,1.513,0,0,0-.025.777,2.178,2.178,0,0,1,.12.684,0.888,0.888,0,0,1-1.377-.186c-0.189-.612.087-0.879-0.748-0.8-0.663.064-1.627,1.241-2.287,0.984-0.519-.2-0.551-1.208-1.138-1.2-0.868.009-1.849,0.311-1.061-1.2a2.389,2.389,0,0,0,.46-1.126,3.082,3.082,0,0,0-.03-0.873c-0.177-.323-1.035-0.809-0.733-1.186,0.258-.322,1.817-0.592,2.026-0.83a2.878,2.878,0,0,1,.713-0.587,1.4,1.4,0,0,1,.345-0.357,7.126,7.126,0,0,1,1.134-.564c0.329,0.1.546,1.088,0.878,1.19a4.831,4.831,0,0,1,.535.025,0.641,0.641,0,0,1,.169.283c0.091,0.087.294,0.252,0.4,0.36A1.827,1.827,0,0,1,241.966,252.99Zm-2.5,2.625a1.3,1.3,0,0,0,.28-0.064,1.325,1.325,0,0,0,.215-0.19,1.27,1.27,0,0,0,.217-0.175,1.294,1.294,0,0,0,.134-0.246,1.228,1.228,0,0,0,.116-0.252,0.931,0.931,0,0,0,.008-0.553,1.242,1.242,0,0,0-.059-0.276,1.3,1.3,0,0,0-.191-0.209,0.923,0.923,0,0,0-.4-0.358,1.208,1.208,0,0,0-.249-0.118,4.611,4.611,0,0,0-.821.058,1.331,1.331,0,0,0-.216.176,0.7,0.7,0,0,0-.338.416,1.26,1.26,0,0,0-.16.234,1.531,1.531,0,0,1-.01.562,1.373,1.373,0,0,0,.057.281,1.469,1.469,0,0,0,.22.193,1.239,1.239,0,0,0,.154.231,1.211,1.211,0,0,0,.229.158,1.19,1.19,0,0,0,.271.062,1.117,1.117,0,0,0,.267.038A1.322,1.322,0,0,0,239.468,255.615Zm7.832-17.5c0.054,0.473-.24.978,0.281,1.352-0.316.39-.571,0.438-0.463,0.878,0.236,0.957.98,0.269,0.876,1.357-0.11,1.149-.875,1.043-1.567,1.44-0.1.059-.116,0.38-0.007,0.312-0.449.281-1.079,0.228-1.543,0.516-0.32.2-.53,0.652-0.843,0.81-0.573.289-2.181-.22-2.845-0.3-1.125-.131-0.8-0.946-0.973-1.843-0.862-.257-1.106-0.01-1.364-0.655a12.851,12.851,0,0,0-1.118-1.332c1.1-.745,1.708-1.3.711-2.412a3.459,3.459,0,0,1-.92-0.755c-0.044-.654,1.782-1.253,2.161-1.319,0.631-.11.744,0.145,1.187-0.417,0.3-.377.222-0.95,0.634-1.068,0.893-.254,1.031.829,1.493,1.117,0.684,0.425,1.716-.544,2.594-0.591,0.422,0.584.236,1.389,0.767,1.894a2.67,2.67,0,0,1,.883.792A0.845,0.845,0,0,1,247.3,238.12Zm-4.584,4.035a0.4,0.4,0,0,1,.413.142c0.112,0.154.257-.014,0.445-0.054a2.557,2.557,0,0,0,.56-0.117,1.813,1.813,0,0,0,.464-0.149,2.513,2.513,0,0,0,.439-0.373,1.937,1.937,0,0,0,.5-1.037,2.667,2.667,0,0,0,.13-0.572,2.707,2.707,0,0,0-.176-0.562,1.926,1.926,0,0,0-.444-1.031,2.455,2.455,0,0,0-.363-0.444,2.639,2.639,0,0,0-.439-0.4,2.716,2.716,0,0,0-.6-0.039,2.637,2.637,0,0,0-.55-0.175,2.581,2.581,0,0,0-.558.141,1.428,1.428,0,0,0-1,.485,2.65,2.65,0,0,0-.5.3,2.926,2.926,0,0,0-.208.551,2.813,2.813,0,0,0-.3.5,2.623,2.623,0,0,0-.1.6,2.108,2.108,0,0,0,.2.539,2.264,2.264,0,0,0,.308.419,3.44,3.44,0,0,0,.426.5,4.361,4.361,0,0,0,.854.576A1.279,1.279,0,0,0,242.716,242.155Z" transform="translate(-224 -233)"/>
</svg>
