<svg xmlns="http://www.w3.org/2000/svg" width="20" height="20" viewBox="0 0 20 20">
  <metadata><?xpacket begin="﻿" id="W5M0MpCehiHzreSzNTczkc9d"?>
<x:xmpmeta xmlns:x="adobe:ns:meta/" x:xmptk="Adobe XMP Core 5.6-c138 79.159824, 2016/09/14-01:09:01        ">
   <rdf:RDF xmlns:rdf="http://www.w3.org/1999/02/22-rdf-syntax-ns#">
      <rdf:Description rdf:about=""/>
   </rdf:RDF>
</x:xmpmeta>
                                                                                                    
                                                                                                    
                                                                                                    
                                                                                                    
                                                                                                    
                                                                                                    
                                                                                                    
                                                                                                    
                                                                                                    
                                                                                                    
                                                                                                    
                                                                                                    
                                                                                                    
                                                                                                    
                                                                                                    
                                                                                                    
                                                                                                    
                                                                                                    
                                                                                                    
                                                                                                    
                           
<?xpacket end="w"?></metadata>
<defs>
    <style>
      .cls-1 {
        fill: #00bd85;
        fill-rule: evenodd;
      }
    </style>
  </defs>
  <path id="形状_19" data-name="形状 19" class="cls-1" d="M566.306,542.309a9.044,9.044,0,0,0,3.657-2.321v2.345a11.247,11.247,0,0,1-3.319,1.56,9.136,9.136,0,0,1-2.838.316,6.424,6.424,0,0,0,.422,1.41c0.116,0.289-.121.216-0.121,0.216l-1.41.215a3.05,3.05,0,0,0-.261-1.07,13.749,13.749,0,0,1-.459-2.722A7.285,7.285,0,0,0,566.306,542.309ZM567.594,557s0.52,0.441.749,0.6a4.623,4.623,0,0,0,1.589.467V560a10.345,10.345,0,0,1-2.649-1.5c-0.672-.555-1.877-1.5-1.877-1.5h2.188Zm5.963-14.691a8.616,8.616,0,0,1-3.594-2.321v2.345a10.118,10.118,0,0,0,3.225,1.56,10.362,10.362,0,0,0,3.057.316,20.346,20.346,0,0,1-1.79,8.675,11.262,11.262,0,0,1-4.523,5.18V560a16.019,16.019,0,0,0,5.657-5.952,26.967,26.967,0,0,0,2.3-11.789A7.288,7.288,0,0,1,573.557,542.309Zm-9.1,2.941A6.485,6.485,0,1,1,558,551.734,6.468,6.468,0,0,1,564.453,545.25Zm0,1.469a5,5,0,1,1-4.953,5A4.976,4.976,0,0,1,564.453,546.719Zm-2.735,2.768h0.992l0.743,3.5,0.5-2.748h0.991l0.495,2.748,0.744-3.5h0.991l-0.991,5h-0.991l-0.744-3-0.743,3H562.71Z" transform="translate(-558 -540)"/>
</svg>
