<?xml version="1.0" encoding="utf-8"?>
<!-- Generator: Adobe Illustrator 22.0.1, SVG Export Plug-In . SVG Version: 6.00 Build 0)  -->
<!DOCTYPE svg PUBLIC "-//W3C//DTD SVG 1.1//EN" "http://www.w3.org/Graphics/SVG/1.1/DTD/svg11.dtd">
<svg version="1.1" id="图层_1" xmlns="http://www.w3.org/2000/svg" xmlns:xlink="http://www.w3.org/1999/xlink" x="0px" y="0px"
	 viewBox="0 0 46 36" style="enable-background:new 0 0 46 36;" xml:space="preserve">
<style type="text/css">
	.st0{fill:#00BD85;}
</style>
<g>
	<g>
		<path class="st0" d="M7.9,34.7l-0.5,0.9C7.9,35.9,8.4,36,9,36h1.6v-1H9C8.6,35,8.2,34.9,7.9,34.7z M6.6,31.8h-1v0.9
			c0,0.8,0.3,1.6,0.9,2.2l0.7-0.7c-0.4-0.4-0.6-1-0.6-1.6V31.8z M11.6,27.8h-1v3.3h0.7v-0.5h0.3V27.8z M6.6,19.9h-1v3h1V19.9z
			 M10.6,26.8h1v-3h-1V26.8z M11.6,19.9h-1v3h1V19.9z M5.7,18.9h1V18l3.9-0.1v1h1V18l5.8,1.6L8.8,7.3L0,19.6l5.7-1.5V18.9z
			 M5.7,30.8h1v-3h-1V30.8z M11.6,36h3v-1h-3V36z M6.6,23.8h-1v3h1V23.8z M15.5,36h3v-1h-3V36z M24.1,31.1h3v-1h-3V31.1z M28.1,31.1
			h3v-1h-3V31.1z M27.4,36h3v-1h-3V36z M31.3,36h3v-1h-3V36z M12.2,31.1h3v-1h-3V31.1z M23.4,36h3v-1h-3V36z M16.2,31.1h3v-1h-3
			V31.1z M19.5,36h3v-1h-3V36z M20.2,31.1h3v-1h-3V31.1z M35.4,9.2h-1v3h1V9.2z M38.1,1.3l0.5-0.9C38.1,0.1,37.6,0,37,0h-1.6v1H37
			C37.4,1,37.8,1.1,38.1,1.3z M34.4,8.2h1V4.9h-0.7v0.5h-0.3V8.2z M34.4,0h-3v1h3V0z M34.4,16.1h1v-3h-1V16.1z M39.4,4.2h1V3.3
			c0-0.8-0.3-1.6-0.9-2.2l-0.7,0.7c0.4,0.4,0.6,1,0.6,1.6V4.2z M40.3,9.2h-1v3h1V9.2z M39.4,16.1h1v-3h-1V16.1z M40.3,5.2h-1v3h1
			V5.2z M33.8,4.9h-3v1h3V4.9z M18.6,0h-3v1h3V0z M17.9,4.9h-3v1h3V4.9z M14.7,0h-3v1h3V0z M21.9,4.9h-3v1h3V4.9z M26.5,0h-3v1h3V0z
			 M29.8,4.9h-3v1h3V4.9z M22.6,0h-3v1h3V0z M30.5,0h-3v1h3V0z M25.8,4.9h-3v1h3V4.9z M40.3,17.9v-0.8h-1V18l-3.9,0.1v-1h-1V18
			l-5.8-1.6l8.6,12.3L46,16.4L40.3,17.9z"/>
	</g>
</g>
</svg>
