<?xml version="1.0" encoding="utf-8"?>
<!-- Generator: Adobe Illustrator 18.0.0, SVG Export Plug-In . SVG Version: 6.00 Build 0)  -->
<!DOCTYPE svg PUBLIC "-//W3C//DTD SVG 1.1//EN" "http://www.w3.org/Graphics/SVG/1.1/DTD/svg11.dtd">
<svg version="1.1" id="图层_1" xmlns="http://www.w3.org/2000/svg" xmlns:xlink="http://www.w3.org/1999/xlink" x="0px" y="0px"
	 viewBox="0 0 25 25" enable-background="new 0 0 25 25" xml:space="preserve">
<path fill="#93A6D8" d="M22.5,5c0-2.3-5-3.5-10-3.5c-5,0-10,1.2-10,3.5v5c0,0,0,0,0,0h0v5c0,0,0,0,0,0h0v5c0,2.3,5,3.5,10,3.5
	c5,0,10-1.2,10-3.5v-5l0,0c0,0,0,0,0,0v-5h0c0,0,0,0,0,0V5z M21.1,6.9V10c0,0.7-3,2.1-8.6,2.1c-5.5,0-8.6-1.4-8.6-2.1V6.9
	c0,0,0,0,0.1,0c0.1,0,0.2,0.1,0.3,0.1c0,0,0,0,0.1,0c0.1,0.1,0.2,0.1,0.4,0.2c0,0,0,0,0,0c0.1,0,0.2,0.1,0.4,0.1c0,0,0,0,0,0
	c1.9,0.7,4.6,1.1,7.3,1.1c2.7,0,5.4-0.4,7.3-1.1c0,0,0,0,0,0c0.1,0,0.2-0.1,0.4-0.1c0,0,0,0,0,0c0.1-0.1,0.2-0.1,0.4-0.2
	c0,0,0,0,0.1,0C20.8,7.1,20.9,7,21.1,6.9C21,7,21,6.9,21.1,6.9z M12.5,17.1c-5.5,0-8.6-1.4-8.6-2.1v-3.1c3.7,2.1,13.4,2.1,17.1,0V15
	C21.1,15.7,18,17.1,12.5,17.1z M21.1,20c0,0.7-3,2.1-8.6,2.1c-5.5,0-8.6-1.4-8.6-2.1v-3.1c0,0,0.1,0,0.1,0c0,0,0.1,0.1,0.2,0.1
	c0.1,0,0.1,0.1,0.2,0.1c0.1,0,0.2,0.1,0.3,0.1c0.1,0,0.1,0,0.2,0.1c0.1,0,0.1,0.1,0.2,0.1c0.1,0,0.1,0,0.2,0.1
	c0.1,0,0.2,0.1,0.4,0.1c0,0,0,0,0,0c1.9,0.6,4.4,0.9,6.9,0.9c2.5,0,5-0.3,6.9-0.9c0,0,0,0,0,0c0.1,0,0.2-0.1,0.3-0.1
	c0.1,0,0.1,0,0.2-0.1c0.1,0,0.1-0.1,0.2-0.1c0.1,0,0.1,0,0.2-0.1c0.1,0,0.2-0.1,0.3-0.1c0.1,0,0.1-0.1,0.2-0.1
	c0.1,0,0.1-0.1,0.2-0.1c0,0,0.1,0,0.1,0V20z"/>
</svg>
