<?xml version="1.0" encoding="utf-8"?>
<!-- Generator: Adobe Illustrator 18.0.0, SVG Export Plug-In . SVG Version: 6.00 Build 0)  -->
<!DOCTYPE svg PUBLIC "-//W3C//DTD SVG 1.1//EN" "http://www.w3.org/Graphics/SVG/1.1/DTD/svg11.dtd">
<svg version="1.1" id="图层_1" xmlns="http://www.w3.org/2000/svg" xmlns:xlink="http://www.w3.org/1999/xlink" x="0px" y="0px"
	 viewBox="0 0 25 25" enable-background="new 0 0 25 25" xml:space="preserve">
<g>
	<g>
		<path fill="#93A6D8" d="M18.7,14V0H3v23.1h8.8c1.1,1.2,2.6,1.9,4.3,1.9c3.2,0,5.9-2.6,5.9-5.8C22,16.9,20.6,14.9,18.7,14z
			 M10.3,19.2c0,0.9,0.2,1.7,0.5,2.4H4.5v-20h12.7v11.8c-0.3-0.1-0.7-0.1-1.1-0.1C12.9,13.4,10.3,16,10.3,19.2z M13.7,20.9l2.1-1.2
			l-2.6-2.5l1.1-1l2.6,2.5l1.2-2l1.1,5L13.7,20.9z M7.8,7.7h6V7h-6V7.7z M7.8,12.6h6v-0.7h-6V12.6z"/>
	</g>
</g>
</svg>
