<?xml version="1.0" encoding="utf-8"?>
<!-- Generator: Adobe Illustrator 18.0.0, SVG Export Plug-In . SVG Version: 6.00 Build 0)  -->
<!DOCTYPE svg PUBLIC "-//W3C//DTD SVG 1.1//EN" "http://www.w3.org/Graphics/SVG/1.1/DTD/svg11.dtd">
<svg version="1.1" id="图层_1" xmlns="http://www.w3.org/2000/svg" xmlns:xlink="http://www.w3.org/1999/xlink" x="0px" y="0px"
	 viewBox="0 0 25 25" enable-background="new 0 0 25 25" xml:space="preserve">
<g>
	<g>
		<path fill-rule="evenodd" clip-rule="evenodd" fill="#93A6D8" d="M17.6,12.6l3.9-4.1L19.1,9V2.5h-3.3V9l-2.4-0.5L17.6,12.6z
			 M21.6,10.4l-1,1.1c0.1,0.5,0.1,1,0.1,1.5c0,0.8-0.1,1.6-0.4,2.4h-3c0.1-0.5,0.1-1,0.2-1.5l-0.7,0.1c0,0.5-0.1,1-0.2,1.5h-3.8V4.7
			c0.2,0,0.3,0,0.5,0c0.2,0.1,0.6,0.3,0.9,0.6V3.6c-0.6-0.1-1.2-0.2-1.8-0.2C7.3,3.5,3,7.7,3,13c0,5.2,4.3,9.5,9.5,9.5
			c5.2,0,9.5-4.3,9.5-9.5C22,12.1,21.9,11.2,21.6,10.4z M10.3,5C9.4,5.9,8.4,7.4,7.8,9.7H4.9C5.9,7.4,7.9,5.7,10.3,5z M4.2,13
			c0-0.9,0.1-1.8,0.4-2.6h3.1c-0.1,0.8-0.2,1.6-0.2,2.6c0,0.9,0.1,1.6,0.2,2.4H4.6C4.4,14.6,4.2,13.8,4.2,13z M4.8,16.1h3
			c0.5,2.4,1.6,3.9,2.5,4.9C7.8,20.3,5.8,18.5,4.8,16.1z M12.1,21.3c-0.1,0-0.2,0-0.4,0c-0.8-0.6-2.5-2.1-3.2-5.1h3.6V21.3z
			 M12.1,15.4H8.4c-0.1-0.7-0.2-1.5-0.2-2.4c0-1,0.1-1.8,0.2-2.6h3.7V15.4z M12.1,9.7H8.6c0.7-3,2.4-4.4,3.2-4.9c0.1,0,0.2,0,0.4,0
			V9.7z M13.4,21.2c-0.2,0-0.3,0-0.5,0v-5.1h3.7C15.8,19.1,14.2,20.6,13.4,21.2z M14.8,20.9c0.9-0.9,2-2.5,2.5-4.8h2.9
			C19.2,18.4,17.2,20.2,14.8,20.9z"/>
	</g>
</g>
</svg>
