<svg xmlns="http://www.w3.org/2000/svg" width="24" height="19" viewBox="0 0 24 19">
  <metadata><?xpacket begin="﻿" id="W5M0MpCehiHzreSzNTczkc9d"?>
<x:xmpmeta xmlns:x="adobe:ns:meta/" x:xmptk="Adobe XMP Core 5.6-c138 79.159824, 2016/09/14-01:09:01        ">
   <rdf:RDF xmlns:rdf="http://www.w3.org/1999/02/22-rdf-syntax-ns#">
      <rdf:Description rdf:about=""/>
   </rdf:RDF>
</x:xmpmeta>
                                                                                                    
                                                                                                    
                                                                                                    
                                                                                                    
                                                                                                    
                                                                                                    
                                                                                                    
                                                                                                    
                                                                                                    
                                                                                                    
                                                                                                    
                                                                                                    
                                                                                                    
                                                                                                    
                                                                                                    
                                                                                                    
                                                                                                    
                                                                                                    
                                                                                                    
                                                                                                    
                           
<?xpacket end="w"?></metadata>
<defs>
    <style>
      .cls-1 {
        fill: #93a6d8;
        fill-rule: evenodd;
      }
    </style>
  </defs>
  <path id="形状_253" data-name="形状 253" class="cls-1" d="M1019.89,462.116l-9.22,7.506,4.43-1.349V473h9.15v-4.728l4.86,1.349Zm-10.74-8.01a7.853,7.853,0,0,0-.06,1.08V457.9l1.23-1.229a3.693,3.693,0,0,0,.65-0.734h1.53c-0.46.421-.46,0.421-0.81,0.759l-1.17,1.113,1.39,1.905a5.822,5.822,0,0,0,.74.956h-1.46a3.832,3.832,0,0,0-.54-0.932l-0.88-1.3-0.68.643v0.536a5.868,5.868,0,0,0,.06,1.055h-1.16a6.788,6.788,0,0,0,.06-1.072v-4.411a6.41,6.41,0,0,0-.06-1.08h1.16Zm7.29,6.027a1.769,1.769,0,0,1-.87.52,2.891,2.891,0,0,1-.76.1,1.391,1.391,0,0,1-1.61-1.385,1.459,1.459,0,0,1,.93-1.336,6.132,6.132,0,0,1,2.31-.33V457.28a0.756,0.756,0,0,0-.94-0.725,1.443,1.443,0,0,0-.85.239,0.887,0.887,0,0,0-.33.528l-1.05-.19a1.687,1.687,0,0,1,.65-0.915,2.432,2.432,0,0,1,1.56-.421,2.125,2.125,0,0,1,1.62.487,1.384,1.384,0,0,1,.38,1.138v2.218a6.532,6.532,0,0,0,.07,1.03h-1.11v-0.536Zm0-1.715c-1.56.033-2.18,0.305-2.18,0.949a0.646,0.646,0,0,0,.75.626,1.672,1.672,0,0,0,1.14-.437,1.008,1.008,0,0,0,.29-0.725v-0.413Zm2.44-1.616a5.692,5.692,0,0,0-.78.049v-0.964a5.293,5.293,0,0,0,.77.049h0.34V455.5a1.365,1.365,0,0,1,1.63-1.5,2.875,2.875,0,0,1,1.01.165l-0.22.865a1.337,1.337,0,0,0-.73-0.2c-0.47,0-.64.2-0.64,0.768v0.337h0.39a9.065,9.065,0,0,0,.93-0.049v0.964a7.26,7.26,0,0,0-.91-0.049h-0.41V459.6a8.333,8.333,0,0,0,.06,1.072h-1.17a9.088,9.088,0,0,0,.06-1.072V456.8h-0.33Zm4.73-2.7a7.853,7.853,0,0,0-.06,1.08V457.9l1.23-1.229a3.693,3.693,0,0,0,.65-0.734h1.53c-0.46.421-.46,0.421-0.82,0.759l-1.16,1.113,1.39,1.905a5.822,5.822,0,0,0,.74.956h-1.46a3.832,3.832,0,0,0-.54-0.932l-0.88-1.3-0.68.643v0.536a5.868,5.868,0,0,0,.06,1.055h-1.16a8.245,8.245,0,0,0,.06-1.072v-4.411a7.684,7.684,0,0,0-.06-1.08h1.16Zm7.29,6.027a1.769,1.769,0,0,1-.87.52,2.891,2.891,0,0,1-.76.1,1.391,1.391,0,0,1-1.61-1.385,1.459,1.459,0,0,1,.93-1.336,6.132,6.132,0,0,1,2.31-.33V457.28a0.756,0.756,0,0,0-.94-0.725,1.443,1.443,0,0,0-.85.239,0.887,0.887,0,0,0-.33.528l-1.05-.19a1.687,1.687,0,0,1,.65-0.915,2.432,2.432,0,0,1,1.56-.421,2.14,2.14,0,0,1,1.62.487,1.384,1.384,0,0,1,.38,1.138v2.218a6.532,6.532,0,0,0,.07,1.03h-1.11v-0.536Zm0-1.715c-1.56.033-2.18,0.305-2.18,0.949a0.646,0.646,0,0,0,.75.626,1.672,1.672,0,0,0,1.14-.437,1.008,1.008,0,0,0,.29-0.725v-0.413Z" transform="translate(-1008 -454)"/>
</svg>
