<?xml version="1.0" encoding="utf-8"?>
<!-- Generator: Adobe Illustrator 22.0.1, SVG Export Plug-In . SVG Version: 6.00 Build 0)  -->
<!DOCTYPE svg PUBLIC "-//W3C//DTD SVG 1.1//EN" "http://www.w3.org/Graphics/SVG/1.1/DTD/svg11.dtd">
<svg version="1.1" id="图层_1" xmlns="http://www.w3.org/2000/svg" xmlns:xlink="http://www.w3.org/1999/xlink" x="0px" y="0px"
	 viewBox="0 0 25 25" style="enable-background:new 0 0 25 25;" xml:space="preserve">
<style type="text/css">
	.st0{fill:#93A6D8;}
</style>
<g>
	<g>
		<path class="st0" d="M3.9,8c0-0.4-0.2-0.7-0.5-0.9C3.2,6.9,2.8,6.8,2.3,6.6C1.9,6.5,1.6,6.4,1.4,6.4C1.2,6.3,1.1,6.2,1.1,6
			c0-0.2,0.1-0.3,0.2-0.4c0.1-0.1,0.3-0.1,0.6-0.1c0.3,0,0.5,0,0.7,0.1c0.1,0.1,0.2,0.3,0.3,0.5h0.9c-0.1-1-0.7-1.4-1.9-1.4
			c-0.5,0-1,0.1-1.3,0.4C0.3,5.3,0.1,5.6,0.1,6c0,0.4,0.2,0.7,0.5,0.9c0.2,0.1,0.6,0.3,1.1,0.4c0.4,0.1,0.7,0.2,0.9,0.3
			C2.8,7.7,3,7.9,3,8.1c0,0.4-0.3,0.6-1,0.6c-0.3,0-0.6-0.1-0.7-0.2C1.1,8.4,1,8.2,0.9,7.9H0c0.1,1.1,0.7,1.6,2,1.6
			C3.3,9.5,3.9,9,3.9,8z M5.2,11.1h1l2.4-6.2H7.6L6.5,8L5.3,4.8H4.2L6,9.2L5.2,11.1z M10.9,8.6c-0.3,0-0.6-0.1-0.7-0.2
			C10,8.4,9.9,8.2,9.9,7.9H8.9c0.1,1.1,0.7,1.6,2,1.6c1.3,0,2-0.5,2-1.4c0-0.4-0.2-0.7-0.5-0.9c-0.2-0.2-0.6-0.3-1.1-0.4
			c-0.4-0.1-0.7-0.2-0.9-0.3C10.1,6.3,10,6.2,10,6c0-0.2,0.1-0.3,0.2-0.4c0.1-0.1,0.3-0.1,0.6-0.1c0.3,0,0.5,0,0.7,0.1
			c0.1,0.1,0.2,0.3,0.3,0.5h0.9c-0.1-1-0.7-1.4-1.9-1.4c-0.5,0-1,0.1-1.3,0.4C9.2,5.3,9,5.6,9,6c0,0.4,0.2,0.7,0.5,0.9
			c0.2,0.1,0.6,0.3,1.1,0.4c0.4,0.1,0.7,0.2,0.9,0.3c0.3,0.1,0.4,0.3,0.4,0.5C11.9,8.5,11.5,8.6,10.9,8.6z M14.7,3h-1v6.3h1V3z
			 M17.8,9.5c0.7,0,1.2-0.2,1.6-0.7c0.4-0.4,0.6-1,0.6-1.7c0-0.7-0.2-1.3-0.6-1.7c-0.4-0.5-0.9-0.7-1.6-0.7c-0.7,0-1.2,0.2-1.6,0.7
			c-0.4,0.4-0.6,1-0.6,1.7c0,0.7,0.2,1.3,0.6,1.7C16.6,9.2,17.2,9.5,17.8,9.5z M16.9,6c0.2-0.3,0.5-0.5,0.9-0.5
			c0.4,0,0.7,0.2,0.9,0.5c0.2,0.3,0.3,0.6,0.3,1.1c0,0.4-0.1,0.8-0.3,1.1c-0.2,0.3-0.5,0.5-0.9,0.5c-0.4,0-0.7-0.2-0.9-0.5
			c-0.2-0.3-0.3-0.6-0.3-1.1C16.6,6.7,16.7,6.3,16.9,6z M24,4.8v0.5c-0.3-0.5-0.8-0.7-1.3-0.7c-0.6,0-1.1,0.2-1.4,0.6
			c-0.4,0.4-0.6,1-0.6,1.6c0,0.7,0.2,1.2,0.6,1.6c0.4,0.4,0.8,0.6,1.4,0.6c0.5,0,1-0.2,1.3-0.7v0.7c0,0.8-0.4,1.2-1.1,1.2
			c-0.3,0-0.6-0.1-0.7-0.1c-0.2-0.1-0.3-0.3-0.3-0.5h-1c0.1,0.5,0.3,0.9,0.6,1.1c0.3,0.2,0.8,0.3,1.4,0.3c1.4,0,2.1-0.7,2.1-2.1V4.8
			H24z M23.7,8c-0.2,0.2-0.5,0.4-0.9,0.4c-0.4,0-0.7-0.1-0.9-0.4c-0.2-0.2-0.2-0.6-0.2-1c0-0.5,0.1-0.8,0.3-1.1
			c0.2-0.3,0.5-0.4,0.8-0.4c0.4,0,0.7,0.1,0.9,0.4C23.9,6.2,24,6.5,24,7C24,7.4,23.9,7.8,23.7,8z M3.2,18.6l4.5-1.4V22h9.2v-4.7
			l4.9,1.4l-9.3-7.5L3.2,18.6z"/>
	</g>
</g>
</svg>
