<?xml version="1.0" encoding="utf-8"?>
<!-- Generator: Adobe Illustrator 22.0.1, SVG Export Plug-In . SVG Version: 6.00 Build 0)  -->
<!DOCTYPE svg PUBLIC "-//W3C//DTD SVG 1.1//EN" "http://www.w3.org/Graphics/SVG/1.1/DTD/svg11.dtd">
<svg version="1.1" id="图层_1" xmlns="http://www.w3.org/2000/svg" xmlns:xlink="http://www.w3.org/1999/xlink" x="0px" y="0px"
	 viewBox="0 0 25 25" style="enable-background:new 0 0 25 25;" xml:space="preserve">
<style type="text/css">
	.st0{fill:#93A6D8;}
</style>
<g>
	<g>
		<path class="st0" d="M23.5,17.8V8.7l-5.9,4.3L23.5,17.8z M1.5,8.7v9.2L7.4,13L1.5,8.7z M22.3,5.5H2.7C2,5.5,1.5,6,1.5,6.6v0.7
			l11,7.8l11-7.8V6.6C23.5,6,23,5.5,22.3,5.5z M12.5,17l-4.1-3.2l-6.5,5.4c0.2,0.2,0.5,0.3,0.8,0.3h19.7c0.3,0,0.6-0.1,0.8-0.3
			l-6.5-5.4L12.5,17z"/>
	</g>
</g>
</svg>
