<svg xmlns="http://www.w3.org/2000/svg" width="19" height="22" viewBox="0 0 19 22">
  <metadata><?xpacket begin="﻿" id="W5M0MpCehiHzreSzNTczkc9d"?>
<x:xmpmeta xmlns:x="adobe:ns:meta/" x:xmptk="Adobe XMP Core 5.6-c138 79.159824, 2016/09/14-01:09:01        ">
   <rdf:RDF xmlns:rdf="http://www.w3.org/1999/02/22-rdf-syntax-ns#">
      <rdf:Description rdf:about=""/>
   </rdf:RDF>
</x:xmpmeta>
                                                                                                    
                                                                                                    
                                                                                                    
                                                                                                    
                                                                                                    
                                                                                                    
                                                                                                    
                                                                                                    
                                                                                                    
                                                                                                    
                                                                                                    
                                                                                                    
                                                                                                    
                                                                                                    
                                                                                                    
                                                                                                    
                                                                                                    
                                                                                                    
                                                                                                    
                                                                                                    
                           
<?xpacket end="w"?></metadata>
<defs>
    <style>
      .cls-1 {
        fill: #93a6d8;
        fill-rule: evenodd;
      }
    </style>
  </defs>
  <path id="形状_258" data-name="形状 258" class="cls-1" d="M1021.49,510.036l-9.49,7.551,4.56-1.357v4.756h9.42V516.23l5,1.357Zm9.27-4.241v-0.023c0,0.008-.01.015-0.01,0.023h0.01Zm-9.27-6.8c-4.6,0-9.27.964-9.27,2.807v3.8c0,1.843,4.67,2.807,9.27,2.807s9.27-.964,9.27-2.807v-3.8C1030.76,499.96,1026.09,499,1021.49,499Zm0.07,1.128c4.26,0,7.72.717,7.72,1.6s-3.46,1.6-7.72,1.6-7.71-.718-7.71-1.6S1017.3,500.124,1021.56,500.124Zm7.86,5.366c0,0.579-2.8,1.706-7.93,1.706s-7.93-1.127-7.93-1.706v-2.16a0.2,0.2,0,0,1,.05.022l0.24,0.11a0.507,0.507,0,0,0,.07.028c0.11,0.046.22,0.09,0.34,0.132,0.01,0.006.03,0.011,0.04,0.016,0.11,0.04.23,0.078,0.34,0.116a0.2,0.2,0,0,1,.04.012,27.9,27.9,0,0,0,13.62,0,0.2,0.2,0,0,1,.04-0.012c0.11-.038.23-0.076,0.34-0.116,0.01,0,.03-0.01.04-0.016,0.12-.043.24-0.087,0.34-0.132a0.507,0.507,0,0,0,.07-0.028q0.12-.054.24-0.111c0.02-.007.03-0.014,0.05-0.021v2.16Zm-17.2.305h0.01c0-.008-0.01-0.015-0.01-0.023V505.8Z" transform="translate(-1012 -499)"/>
</svg>
