<?xml version="1.0" encoding="utf-8"?>
<!-- Generator: Adobe Illustrator 22.0.1, SVG Export Plug-In . SVG Version: 6.00 Build 0)  -->
<!DOCTYPE svg PUBLIC "-//W3C//DTD SVG 1.1//EN" "http://www.w3.org/Graphics/SVG/1.1/DTD/svg11.dtd">
<svg version="1.1" id="图层_1" xmlns="http://www.w3.org/2000/svg" xmlns:xlink="http://www.w3.org/1999/xlink" x="0px" y="0px"
	 viewBox="0 0 25 25" style="enable-background:new 0 0 25 25;" xml:space="preserve">
<style type="text/css">
	.st0{fill:#93A6D8;}
</style>
<g>
	<g>
		<path class="st0" d="M3.2,19l4.5-1.3v4.6h9.2v-4.6l4.9,1.3l-9.3-7.4L3.2,19z M3.5,9.6V7.2c0-1.1-0.5-1.7-1.4-1.7
			c-0.5,0-0.8,0.2-1.2,0.5V4.3H0v5.3h0.9V7.4c0-0.6,0.4-1.1,1-1.1c0.4,0,0.7,0.3,0.7,0.8v2.4H3.5z M4.1,8.5c0,0.8,0.4,1.2,1.3,1.2
			c0.5,0,0.9-0.2,1.2-0.5c0,0.2,0.1,0.3,0.2,0.4h1C7.6,9.4,7.4,9,7.4,8.5V7.1c0-1-0.6-1.6-1.6-1.6C4.9,5.5,4.4,6,4.1,6.7L5,7
			c0.1-0.4,0.4-0.7,0.8-0.7c0.4,0,0.7,0.2,0.7,0.6C6.3,7.1,6,7.1,5.5,7.2C4.6,7.3,4.1,7.8,4.1,8.5z M6.5,7.7V8
			c0,0.5-0.4,0.9-0.9,0.9C5.2,8.9,5,8.7,5,8.5C5,8.2,5.2,8.1,5.6,8C6,7.9,6.3,7.8,6.5,7.7z M9.8,9.6c0.5,0,0.9-0.2,1.1-0.4v0.4h0.9
			V4.3h-0.9V6c-0.3-0.3-0.6-0.4-1-0.4c-1.1,0-1.8,0.8-1.8,2.1C8.1,8.9,8.8,9.6,9.8,9.6z M10,6.4c0.6,0,0.9,0.4,0.9,1v0.4
			c0,0.7-0.4,1-0.9,1c-0.6,0-1-0.4-1-1.2C9,6.8,9.4,6.4,10,6.4z M14.3,9.7c1.2,0,2-0.7,2-2.1c0-1.3-0.8-2.1-2-2.1
			c-1.2,0-2,0.8-2,2.1C12.4,8.9,13.1,9.7,14.3,9.7z M14.3,6.4c0.7,0,1.1,0.4,1.1,1.3c0,0.9-0.4,1.3-1.1,1.3c-0.6,0-1-0.4-1-1.2
			C13.3,6.8,13.7,6.4,14.3,6.4z M18.7,9.7c1.2,0,2-0.7,2-2.1c0-1.3-0.8-2.1-2-2.1c-1.2,0-2,0.8-2,2.1C16.7,8.9,17.4,9.7,18.7,9.7z
			 M18.7,6.4c0.7,0,1.1,0.4,1.1,1.3c0,0.9-0.4,1.3-1.1,1.3c-0.6,0-1-0.4-1-1.2C17.7,6.8,18,6.4,18.7,6.4z M23.3,5.5
			c-0.5,0-0.8,0.2-1.1,0.5V5.6h-0.9v5.2h0.9V9.2c0.3,0.3,0.6,0.4,1,0.4c1.1,0,1.8-0.6,1.8-2C25,6.3,24.3,5.5,23.3,5.5z M23.1,8.9
			c-0.6,0-0.9-0.3-0.9-1V7.4c0-0.7,0.3-1.1,0.9-1.1c0.6,0,0.9,0.4,0.9,1.3C24.1,8.5,23.7,8.9,23.1,8.9z"/>
	</g>
</g>
</svg>
