<?xml version="1.0" encoding="utf-8"?>
<!-- Generator: Adobe Illustrator 22.0.1, SVG Export Plug-In . SVG Version: 6.00 Build 0)  -->
<!DOCTYPE svg PUBLIC "-//W3C//DTD SVG 1.1//EN" "http://www.w3.org/Graphics/SVG/1.1/DTD/svg11.dtd">
<svg version="1.1" id="图层_1" xmlns="http://www.w3.org/2000/svg" xmlns:xlink="http://www.w3.org/1999/xlink" x="0px" y="0px"
	 viewBox="0 0 25 25" style="enable-background:new 0 0 25 25;" xml:space="preserve">
<style type="text/css">
	.st0{fill:#93A6D8;}
</style>
<g>
	<g>
		<path class="st0" d="M20.5,0h-16v8.5h16V0z M19,6.9H6V1.5h13V6.9z M15.4,17.8V25H25v-7.2H15.4z M23.5,23.5h-6.6v-4.2h6.6V23.5z
			 M0,25h9.6v-7.2H0V25z M1.5,19.3h6.6v4.2H1.5V19.3z M15.5,15.1l3.6,1.1l-0.1-3.5l-1,1.2L15.4,10l-0.6,0.4l2.6,4L15.5,15.1z
			 M7.1,14l-1-1.2L6,16.3l3.6-1.1l-1.9-0.7l2.6-4L9.6,10L7.1,14z"/>
	</g>
</g>
</svg>
