<?xml version="1.0" encoding="utf-8"?>
<!-- Generator: Adobe Illustrator 22.0.1, SVG Export Plug-In . SVG Version: 6.00 Build 0)  -->
<!DOCTYPE svg PUBLIC "-//W3C//DTD SVG 1.1//EN" "http://www.w3.org/Graphics/SVG/1.1/DTD/svg11.dtd">
<svg version="1.1" id="图层_1" xmlns="http://www.w3.org/2000/svg" xmlns:xlink="http://www.w3.org/1999/xlink" x="0px" y="0px"
	 viewBox="0 0 25 25" style="enable-background:new 0 0 25 25;" xml:space="preserve">
<style type="text/css">
	.st0{fill:#93A6D8;}
</style>
<g>
	<g>
		<path class="st0" d="M0.7,12.6c0.3,0.5,0.7,0.8,1.2,1.1c0.5,0.2,1.1,0.3,1.8,0.3c1.4,0,2.3-0.4,2.9-1.1c0.6-0.8,0.8-2,0.8-3.6
			c0-0.7-0.1-1.4-0.3-2.1c0-0.3-0.1-0.7-0.2-0.9C6.7,6,6.5,5.8,6.3,5.5C6,5.3,5.7,5.1,5.3,4.9C4.9,4.8,4.4,4.8,3.8,4.8
			c-1.3,0-2.2,0.3-2.9,1C0.3,6.4,0,7.6,0,9.3c0,0.7,0.1,1.3,0.2,1.9C0.3,11.8,0.5,12.3,0.7,12.6z M2.8,7C3,6.6,3.3,6.4,3.7,6.4
			S4.4,6.6,4.6,7C4.9,7.4,5,8.2,5,9.4c0,0.8,0,1.4-0.1,1.8c-0.1,0.4-0.2,0.7-0.4,0.8c-0.2,0.2-0.4,0.3-0.7,0.3
			c-0.4,0-0.7-0.2-0.9-0.6c-0.2-0.4-0.3-1.2-0.3-2.4C2.5,8.2,2.6,7.4,2.8,7z M12,9.6c1.2,0,1.5,0.8,2.8,0.9c1.4,0,2-0.9,2-0.9
			l-0.5-0.9c0,0-0.8,0.6-1.7,0.5c-1,0-1.4-0.9-2.7-0.9c-1.8,0-2.8,1.9-2.8,1.9l0.8,0.3C10.1,10.6,10.8,9.6,12,9.6z M20.3,14.1h2.1
			v-2h-2.1V14.1z M21.7,5.6c0.7,0,1.2,0.6,1.2,1.1s-0.2,1-1.2,1.7c-0.9,0.7-1.2,1.4-1.2,2.2v0.5h1.7v-0.4c0-0.6,0.2-1,1.1-1.6
			C24.6,8.2,25,7.4,25,6.4c0-1.2-1.1-2.5-3-2.5c-2.4,0-3.5,0.9-4,3l1.9,0.4C20.2,6.1,20.7,5.6,21.7,5.6z M24,20H1v-2H0v3h25v-3h-1
			V20z"/>
	</g>
</g>
</svg>
