<?xml version="1.0" encoding="utf-8"?>
<!-- Generator: Adobe Illustrator 22.0.1, SVG Export Plug-In . SVG Version: 6.00 Build 0)  -->
<!DOCTYPE svg PUBLIC "-//W3C//DTD SVG 1.1//EN" "http://www.w3.org/Graphics/SVG/1.1/DTD/svg11.dtd">
<svg version="1.1" id="图层_1" xmlns="http://www.w3.org/2000/svg" xmlns:xlink="http://www.w3.org/1999/xlink" x="0px" y="0px"
	 viewBox="0 0 25 25" style="enable-background:new 0 0 25 25;" xml:space="preserve">
<style type="text/css">
	.st0{fill:#93A6D8;}
</style>
<g>
	<g>
		<path class="st0" d="M8.2,20.1c0.6,0.4,1.2,0.8,1.8,1.1l0.3-0.7c-0.6-0.3-1.1-0.6-1.6-1L8.2,20.1z M6.2,18
			c0.4,0.6,0.9,1.1,1.4,1.6L8.1,19c-0.5-0.4-0.9-0.9-1.3-1.5L6.2,18z M5,13.5h4.7v-1.6H0v1.6h4.2c0.1,0.4,0.2,0.8,0.3,1.2l0.7-0.2
			C5.2,14.1,5.1,13.8,5,13.5z M12.8,21.2c-0.6-0.1-1.2-0.2-1.9-0.5l-0.3,0.7c0.7,0.2,1.3,0.4,2,0.5L12.8,21.2z M5.5,15.1l-0.7,0.3
			c0.3,0.7,0.6,1.3,0.9,1.9l0.6-0.4C6,16.3,5.7,15.7,5.5,15.1z M13.2,21.6L12.5,25l4.1-3.4l-4.1-2.8L13.2,21.6z M19.9,0h-2.7
			l-5,13.5h2.7l1.1-3.1h5.1l1.1,3.1H25L19.9,0z M16.8,8.1l1.7-5l1.8,5H16.8z"/>
	</g>
</g>
</svg>
