<?xml version="1.0" encoding="utf-8"?>
<!-- Generator: Adobe Illustrator 22.0.1, SVG Export Plug-In . SVG Version: 6.00 Build 0)  -->
<!DOCTYPE svg PUBLIC "-//W3C//DTD SVG 1.1//EN" "http://www.w3.org/Graphics/SVG/1.1/DTD/svg11.dtd">
<svg version="1.1" id="图层_1" xmlns="http://www.w3.org/2000/svg" xmlns:xlink="http://www.w3.org/1999/xlink" x="0px" y="0px"
	 viewBox="0 0 25 25" style="enable-background:new 0 0 25 25;" xml:space="preserve">
<style type="text/css">
	.st0{fill:#93A6D8;}
</style>
<path class="st0" d="M19.7,8.5V5H0.5v10.8h12.9c0.7,2.4,2.8,4.2,5.4,4.2c3.1,0,5.6-2.6,5.6-5.8C24.5,11.3,22.4,8.9,19.7,8.5z
	 M13.2,14.2H2V6.6h16.2v1.8C15.4,8.8,13.2,11.2,13.2,14.2z M21.8,16.2l-1,1l-2-2l-2,2l-1-1l2-2l-2-2l1-1l2,2l2-2l1,1l-2,2L21.8,16.2
	z"/>
</svg>
