<svg xmlns="http://www.w3.org/2000/svg" width="22" height="16" viewBox="0 0 22 16">
  <metadata><?xpacket begin="﻿" id="W5M0MpCehiHzreSzNTczkc9d"?>
<x:xmpmeta xmlns:x="adobe:ns:meta/" x:xmptk="Adobe XMP Core 5.6-c138 79.159824, 2016/09/14-01:09:01        ">
   <rdf:RDF xmlns:rdf="http://www.w3.org/1999/02/22-rdf-syntax-ns#">
      <rdf:Description rdf:about=""/>
   </rdf:RDF>
</x:xmpmeta>
                                                                                                    
                                                                                                    
                                                                                                    
                                                                                                    
                                                                                                    
                                                                                                    
                                                                                                    
                                                                                                    
                                                                                                    
                                                                                                    
                                                                                                    
                                                                                                    
                                                                                                    
                                                                                                    
                                                                                                    
                                                                                                    
                                                                                                    
                                                                                                    
                                                                                                    
                                                                                                    
                           
<?xpacket end="w"?></metadata>
<defs>
    <style>
      .cls-1 {
        fill: #93a6d8;
        fill-rule: evenodd;
      }
    </style>
  </defs>
  <path id="形状_259" data-name="形状 259" class="cls-1" d="M1032.99,594.946c0-2.589-5.53-3.943-10.99-3.943s-11,1.354-11,3.943v8.33c0,0.011.01,0.022,0.01,0.032H1011v-0.266c0,2.589,5.53,3.944,11,3.944s10.99-1.355,10.99-3.944v0.266h0v-8.362Zm-1.59,2.144v6.186c0,0.813-3.32,2.4-9.4,2.4s-9.41-1.583-9.41-2.4V597.09l0.06,0.031c0.09,0.053.19,0.1,0.28,0.154,0.03,0.014.05,0.027,0.08,0.04,0.13,0.064.26,0.126,0.4,0.186l0.06,0.022c0.13,0.056.26,0.11,0.4,0.163l0.05,0.017a28.083,28.083,0,0,0,16.15,0c0.02-.006.03-0.012,0.05-0.018,0.14-.052.28-0.106,0.41-0.161a0.239,0.239,0,0,1,.05-0.023c0.14-.06.27-0.122,0.4-0.186,0.03-.013.05-0.026,0.08-0.039,0.1-.051.19-0.1,0.29-0.155A0.217,0.217,0,0,1,1031.4,597.09Z" transform="translate(-1011 -591)"/>
</svg>
