<?xml version="1.0" encoding="utf-8"?>
<!-- Generator: Adobe Illustrator 22.0.1, SVG Export Plug-In . SVG Version: 6.00 Build 0)  -->
<!DOCTYPE svg PUBLIC "-//W3C//DTD SVG 1.1//EN" "http://www.w3.org/Graphics/SVG/1.1/DTD/svg11.dtd">
<svg version="1.1" id="图层_1" xmlns="http://www.w3.org/2000/svg" xmlns:xlink="http://www.w3.org/1999/xlink" x="0px" y="0px"
	 viewBox="0 0 25 25" style="enable-background:new 0 0 25 25;" xml:space="preserve">
<style type="text/css">
	.st0{fill:#93A6D8;}
</style>
<g>
	<g>
		<path class="st0" d="M13.4,20.5h-0.5v0.4c0,0.6,0.2,1.2,0.6,1.6l0.4-0.3c-0.3-0.4-0.5-0.8-0.5-1.3V20.5z M13.4,4.1
			c0-0.4,0.1-0.7,0.3-1.1l-0.4-0.3c-0.2,0.4-0.4,0.9-0.4,1.3v0.7h0.5V4.1z M17.3,23.5h2V23h-2V23.5z M12.9,19.5h0.5v-2h-0.5V19.5z
			 M16,2V1.5h-0.5C15,1.5,14.4,1.7,14,2l0.3,0.4C14.6,2.1,15.1,2,15.5,2H16z M13.4,14.6h-0.5v2h0.5V14.6z M22,1.5h-2V2h2V1.5z
			 M13.4,5.8h-0.5v2h0.5V5.8z M19,1.5h-2V2h2V1.5z M14.5,22.8l-0.2,0.4c0.4,0.2,0.8,0.3,1.2,0.3h0.8V23h-0.8
			C15.2,23,14.8,22.9,14.5,22.8z M24.5,11.8H25v-2h-0.5V11.8z M20.3,23v0.5h2l0-0.5H20.3z M24.5,8.9H25v-2h-0.5V8.9z M25,4l-0.5,0
			c0,0,0,0.1,0,0.1v1.8H25V4.1C25,4.1,25,4,25,4z M24.5,14.8H25v-2h-0.5V14.8z M23.2,22.8l0.2,0.5c0.7-0.3,1.2-0.9,1.4-1.6l-0.5-0.2
			C24.2,22.1,23.8,22.6,23.2,22.8z M24.2,3.1l0.4-0.2c-0.3-0.7-0.9-1.1-1.7-1.3l-0.1,0.5C23.5,2.2,24,2.6,24.2,3.1z M24.5,17.7H25
			v-2h-0.5V17.7z M24.5,20.7H25v-2h-0.5V20.7z M13,11.9v0.8h0.4v-0.8h0V9.3h0V8.5H13v0.8h-2.2l0.6-2.2l-4.9,3.7l4.9,3.2l-0.6-2.2H13
			z M21.9,4.9h-5.9v2.8h5.9V4.9z M21.9,10.7h-5.9v2.8h5.9V10.7z M21.9,16.5h-5.9v2.8h5.9V16.5z M0,7.8h5.1V4.9H0V7.8z M0,13.5h5.1
			v-2.8H0V13.5z M0,19.3h5.1v-2.8H0V19.3z"/>
	</g>
</g>
</svg>
