<svg xmlns="http://www.w3.org/2000/svg" width="25" height="23" viewBox="0 0 25 23">
  <metadata><?xpacket begin="﻿" id="W5M0MpCehiHzreSzNTczkc9d"?>
<x:xmpmeta xmlns:x="adobe:ns:meta/" x:xmptk="Adobe XMP Core 5.6-c138 79.159824, 2016/09/14-01:09:01        ">
   <rdf:RDF xmlns:rdf="http://www.w3.org/1999/02/22-rdf-syntax-ns#">
      <rdf:Description rdf:about=""/>
   </rdf:RDF>
</x:xmpmeta>
                                                                                                    
                                                                                                    
                                                                                                    
                                                                                                    
                                                                                                    
                                                                                                    
                                                                                                    
                                                                                                    
                                                                                                    
                                                                                                    
                                                                                                    
                                                                                                    
                                                                                                    
                                                                                                    
                                                                                                    
                                                                                                    
                                                                                                    
                                                                                                    
                                                                                                    
                                                                                                    
                           
<?xpacket end="w"?></metadata>
<defs>
    <style>
      .cls-1 {
        fill: #93a6d8;
        fill-rule: evenodd;
      }
    </style>
  </defs>
  <path id="形状_257" data-name="形状 257" class="cls-1" d="M1020.36,550.884l-4.16,1.215,0.22,0.713,4.2-1.229,0.16,1.967,2.08-3.082-3.41-.893Zm-0.91,9.658,3.41-.892-2.08-3.083-0.16,1.967-4.2-1.228-0.22.712,4.16,1.216Zm-4.26-9.5c0-.935-2.06-1.424-4.09-1.424s-4.1.489-4.1,1.424v2.026h0v3.989h0v3c0,0.935,2.06,1.424,4.1,1.424s4.09-.489,4.09-1.424v-3h0v-3h0v-3.013Zm-0.59.775v2.227c0,0.293-1.24.865-3.5,0.865s-3.51-.572-3.51-0.865v-2.227a0.034,0.034,0,0,1,.02.011c0.04,0.019.07,0.038,0.11,0.056l0.03,0.014c0.05,0.023.1,0.046,0.15,0.067a0.031,0.031,0,0,0,.02.008c0.05,0.021.1,0.04,0.15,0.059,0.01,0,.01,0,0.02.006a10.774,10.774,0,0,0,6.02,0s0.01,0,.01-0.006a1.052,1.052,0,0,0,.15-0.058,0.036,0.036,0,0,0,.02-0.009,0.9,0.9,0,0,0,.15-0.067l0.03-.014a0.934,0.934,0,0,0,.11-0.056C1014.59,551.826,1014.59,551.823,1014.6,551.819Zm-3.5,6.105c-2.27,0-3.51-.572-3.51-0.865v-2.227a9.867,9.867,0,0,0,7.01,0v2.227C1014.6,557.352,1013.36,557.924,1011.1,557.924Zm3.5,2.137c0,0.293-1.24.865-3.5,0.865s-3.51-.572-3.51-0.865v-2.227c0.01,0.006.03,0.012,0.04,0.018l0.06,0.033a0.454,0.454,0,0,0,.07.035l0.12,0.056a0.5,0.5,0,0,1,.07.029l0.09,0.034a0.558,0.558,0,0,1,.07.024c0.05,0.016.09,0.032,0.14,0.048l0.02,0a11.056,11.056,0,0,0,5.65,0l0.02,0c0.05-.016.1-0.032,0.14-0.048a0.558,0.558,0,0,0,.07-0.024l0.09-.034a0.5,0.5,0,0,1,.07-0.029l0.12-.056a0.379,0.379,0,0,0,.07-0.035c0.02-.011.05-0.022,0.07-0.033l0.03-.018v2.227Zm17.4-6.021c0-.928-2.04-1.413-4.06-1.413s-4.07.485-4.07,1.413v3h0v-0.1c0,0.928,2.05,1.414,4.07,1.414s4.06-.486,4.06-1.414v0.1h0v-3Zm-0.59.769v2.217c0,0.291-1.22.858-3.47,0.858s-3.48-.567-3.48-0.858v-2.217a0.041,0.041,0,0,0,.02.011c0.03,0.018.07,0.037,0.1,0.055l0.03,0.014,0.15,0.067c0.01,0,.01,0,0.02.008l0.15,0.058c0.01,0,.01,0,0.02.006a10.7,10.7,0,0,0,5.97,0c0.01,0,.01,0,0.02-0.006l0.15-.058c0.01,0,.01-0.005.02-0.008l0.15-.067,0.03-.014c0.03-.018.07-0.037,0.1-0.056A0.035,0.035,0,0,0,1031.41,554.809Zm0.59-9.4c0-.928-2.04-1.413-4.06-1.413s-4.07.485-4.07,1.413v3h0v-0.095c0,0.928,2.05,1.413,4.07,1.413s4.06-.485,4.06-1.413v0.095h0v-3Zm-0.59.769V548.4c0,0.291-1.22.858-3.47,0.858s-3.48-.567-3.48-0.858v-2.217a0.041,0.041,0,0,0,.02.011c0.03,0.018.07,0.037,0.1,0.055l0.03,0.014,0.15,0.067a0.167,0.167,0,0,1,.02.008l0.15,0.058,0.02,0.006a10.7,10.7,0,0,0,5.97,0l0.02-.006,0.15-.058a0.167,0.167,0,0,1,.02-0.008l0.15-.067,0.03-.014c0.03-.018.07-0.037,0.1-0.056A0.035,0.035,0,0,0,1031.41,546.178Zm0.59,16.493c0-.928-2.04-1.413-4.06-1.413s-4.07.485-4.07,1.413v3h0v-0.1c0,0.928,2.05,1.414,4.07,1.414s4.06-.486,4.06-1.414v0.1h0v-3Zm-0.59.769v2.217c0,0.291-1.22.858-3.47,0.858s-3.48-.567-3.48-0.858V563.44a0.041,0.041,0,0,0,.02.011c0.03,0.018.07,0.037,0.1,0.055l0.03,0.014,0.15,0.067,0.02,0.008,0.15,0.058c0.01,0,.01,0,0.02.006a10.7,10.7,0,0,0,5.97,0c0.01,0,.01,0,0.02-0.006l0.15-.058,0.02-.008,0.15-.067,0.03-.014c0.03-.018.07-0.037,0.1-0.056A0.035,0.035,0,0,0,1031.41,563.44Z" transform="translate(-1007 -544)"/>
</svg>
