<?xml version="1.0" encoding="utf-8"?>
<!-- Generator: Adobe Illustrator 22.0.1, SVG Export Plug-In . SVG Version: 6.00 Build 0)  -->
<!DOCTYPE svg PUBLIC "-//W3C//DTD SVG 1.1//EN" "http://www.w3.org/Graphics/SVG/1.1/DTD/svg11.dtd">
<svg version="1.1" id="图层_1" xmlns="http://www.w3.org/2000/svg" xmlns:xlink="http://www.w3.org/1999/xlink" x="0px" y="0px"
	 viewBox="0 0 25 25" style="enable-background:new 0 0 25 25;" xml:space="preserve">
<style type="text/css">
	.st0{fill:#93A6D8;}
</style>
<g>
	<g>
		<path class="st0" d="M12.1,21h0.7v-2h-0.7V21z M12.1,18h0.7v-2h-0.7V18z M12.1,15h0.7v-2h-0.7V15z M12.1,24h0.7v-2h-0.7V24z
			 M12.1,12h0.7v-2h-0.7V12z M12.1,6h0.7V4h-0.7V6z M12.1,3h0.7V1h-0.7V3z M12.1,9h0.7V7h-0.7V9z M5.2,3.3C2.9,3.3,1,5.2,1,7.6
			c0,2,1.4,3.8,3.3,4.2v10H8v-1.9H6.2v-2.2H8v-1.9H6.2v-3.9c1.9-0.5,3.3-2.2,3.3-4.2C9.5,5.2,7.6,3.3,5.2,3.3z M5.2,9.5
			c-1,0-1.9-0.9-1.9-1.9c0-1.1,0.8-1.9,1.9-1.9c1,0,1.9,0.9,1.9,1.9C7.1,8.6,6.3,9.5,5.2,9.5z M19.8,5.2c-1.3,0-2.4,1.1-2.4,2.4
			c0,1.3,1.1,2.4,2.4,2.4c1.3,0,2.4-1.1,2.4-2.4C22.1,6.2,21.1,5.2,19.8,5.2z M19.8,9.5c-1,0-1.9-0.9-1.9-1.9c0-1.1,0.8-1.9,1.9-1.9
			c1,0,1.9,0.9,1.9,1.9C21.6,8.6,20.8,9.5,19.8,9.5z M19.8,3.3c-2.3,0-4.2,1.9-4.2,4.3c0,2,1.4,3.7,3.3,4.2v3.9H17v1.9h1.8v2.2H17
			v1.9h3.7v-10c1.9-0.4,3.3-2.2,3.3-4.2C24,5.2,22.1,3.3,19.8,3.3z M20.4,11.3l-0.2,0v9.9h-2.7v-0.9h1.8v-3.2h-1.8v-0.9h1.8v-4.8
			l-0.2,0C17.3,11,16,9.4,16,7.6c0-2.1,1.7-3.8,3.8-3.8c2.1,0,3.8,1.7,3.8,3.8C23.5,9.4,22.2,11,20.4,11.3z"/>
	</g>
</g>
</svg>
