<?xml version="1.0" encoding="utf-8"?>
<!-- Generator: Adobe Illustrator 22.0.1, SVG Export Plug-In . SVG Version: 6.00 Build 0)  -->
<!DOCTYPE svg PUBLIC "-//W3C//DTD SVG 1.1//EN" "http://www.w3.org/Graphics/SVG/1.1/DTD/svg11.dtd">
<svg version="1.1" id="图层_1" xmlns="http://www.w3.org/2000/svg" xmlns:xlink="http://www.w3.org/1999/xlink" x="0px" y="0px"
	 viewBox="0 0 25 25" style="enable-background:new 0 0 25 25;" xml:space="preserve">
<style type="text/css">
	.st0{fill:#93A6D8;}
</style>
<g>
	<polygon class="st0" points="17.9,12.9 17.9,1 1.4,1 1.4,23.5 17.9,23.5 17.9,19.4 16.4,19.4 16.4,22 2.9,22 2.9,2.6 16.4,2.6 
		16.4,12.9 	"/>
	<g>
		<g>
			<path class="st0" d="M23.3,21.9l-2.8-3.2c1-1.6,0.9-3.7-0.4-5.2c-0.8-0.9-1.9-1.4-3.1-1.5c-1.5-0.1-2.9,0.5-3.8,1.7
				c-1.2,1.4-1.3,3.5-0.4,5.1c0.8,1.3,2.1,2.1,3.5,2.2c0.1,0,0.2,0,0.3,0c0.6,0,1.2-0.1,1.7-0.4l2.8,3.2c0.3,0.4,0.9,0.4,1.3,0.1
				l0.7-0.6C23.6,22.9,23.7,22.3,23.3,21.9z M18.4,18.4c-0.5,0.5-1.2,0.7-1.9,0.6c-0.7,0-1.3-0.4-1.8-0.9c-0.5-0.5-0.7-1.2-0.6-1.9
				c0-0.7,0.4-1.3,0.9-1.8c0.5-0.4,1.1-0.6,1.7-0.6c0.1,0,0.1,0,0.2,0c0.7,0,1.3,0.4,1.8,0.9C19.7,15.7,19.5,17.4,18.4,18.4z"/>
		</g>
	</g>
	<rect x="5.5" y="9.3" class="st0" width="8.3" height="1.7"/>
	<rect x="4.9" y="9.3" transform="matrix(2.710549e-11 -1 1 2.710549e-11 -0.505 19.8351)" class="st0" width="9.5" height="1.7"/>
</g>
</svg>
