<?xml version="1.0" encoding="utf-8"?>
<!-- Generator: Adobe Illustrator 22.0.1, SVG Export Plug-In . SVG Version: 6.00 Build 0)  -->
<!DOCTYPE svg PUBLIC "-//W3C//DTD SVG 1.1//EN" "http://www.w3.org/Graphics/SVG/1.1/DTD/svg11.dtd">
<svg version="1.1" id="图层_1" xmlns="http://www.w3.org/2000/svg" xmlns:xlink="http://www.w3.org/1999/xlink" x="0px" y="0px"
	 viewBox="0 0 25 25" style="enable-background:new 0 0 25 25;" xml:space="preserve">
<style type="text/css">
	.st0{fill:#93A6D8;}
</style>
<g>
	<g>
		<path class="st0" d="M19.7,1.6H5.3c-1.2,0-2.2,0.9-2.2,2.1v17.7c0,1.2,1,2.1,2.2,2.1h14.3c1.2,0,2.2-0.9,2.2-2.1V3.7
			C21.8,2.5,20.9,1.6,19.7,1.6z M9.2,21.9H4.8v-3.2h4.4V21.9z M9.2,18H4.8v-3.4h4.4V18z M9.2,13.8H4.8v-3.4h4.4V13.8z M14.3,21.9H10
			v-3.2h4.3V21.9z M14.3,18H10v-3.4h4.3V18z M14.3,13.8H10v-3.4h4.3V13.8z M20.2,21.9h-5.1v-3.2h5.1V21.9z M20.2,18h-5.1v-3.4h5.1
			V18z M20.2,13.8h-5.1v-3.4h5.1V13.8z M20.2,9.6H4.8V3.1h15.5V9.6z M16.1,6.3c-0.5,0.4-0.9,0.7-1.1,1c-0.2,0.3-0.3,0.6-0.4,0.9h3.4
			V7.3h-1.8c0.1-0.1,0.2-0.2,0.3-0.2C16.6,7,16.8,6.9,17,6.8c0.4-0.3,0.7-0.5,0.8-0.7C18,5.8,18,5.6,18,5.3c0-0.2-0.1-0.4-0.2-0.6
			c-0.1-0.2-0.3-0.3-0.5-0.4c-0.2-0.1-0.5-0.1-0.9-0.1c-0.4,0-0.7,0-0.9,0.1c-0.2,0.1-0.4,0.2-0.5,0.4c-0.1,0.2-0.2,0.4-0.2,0.7
			l1.1,0.1c0-0.2,0.1-0.4,0.2-0.5c0.1-0.1,0.2-0.1,0.4-0.1c0.1,0,0.3,0,0.4,0.1c0.1,0.1,0.1,0.2,0.1,0.3c0,0.1,0,0.2-0.1,0.4
			C16.7,5.9,16.4,6,16.1,6.3z"/>
	</g>
</g>
</svg>
