<?xml version="1.0" encoding="utf-8"?>
<!-- Generator: Adobe Illustrator 22.0.1, SVG Export Plug-In . SVG Version: 6.00 Build 0)  -->
<!DOCTYPE svg PUBLIC "-//W3C//DTD SVG 1.1//EN" "http://www.w3.org/Graphics/SVG/1.1/DTD/svg11.dtd">
<svg version="1.1" id="图层_1" xmlns="http://www.w3.org/2000/svg" xmlns:xlink="http://www.w3.org/1999/xlink" x="0px" y="0px"
	 viewBox="0 0 25 25" style="enable-background:new 0 0 25 25;" xml:space="preserve">
<style type="text/css">
	.st0{fill:#93A6D8;}
</style>
<g>
	<g>
		<path class="st0" d="M1.5,21.3h7.9V2.6H1.5V21.3z M2.2,3.3h6.4v3.4H2.2V3.3z M2.2,7.5h6.4v3.7H2.2V7.5z M2.2,12h6.4v3.7H2.2V12z
			 M2.2,16.4h6.4v4.2H2.2V16.4z M23.3,20l-3.4-3.9c1.2-1.9,1-4.4-0.5-6.2c-0.9-1.1-2.2-1.7-3.7-1.8c-1.7-0.1-3.4,0.6-4.6,2
			c-1.4,1.7-1.6,4.2-0.4,6c0.9,1.5,2.5,2.5,4.2,2.6c0.1,0,0.3,0,0.4,0c0.7,0,1.4-0.2,2.1-0.4l3.3,3.8c0.4,0.5,1.1,0.5,1.5,0.1
			l0.8-0.7C23.6,21.1,23.6,20.4,23.3,20z M17.4,15.7c-0.6,0.5-1.4,0.8-2.3,0.8c-0.8-0.1-1.6-0.4-2.2-1.1c-0.6-0.6-0.8-1.4-0.8-2.3
			c0.1-0.8,0.4-1.6,1.1-2.2c0.6-0.5,1.3-0.8,2.1-0.8c0.1,0,0.2,0,0.2,0c0.8,0.1,1.6,0.4,2.2,1.1C18.9,12.6,18.7,14.6,17.4,15.7z
			 M17.4,20.5H11v-3.2h-0.8v3.9h7.9v-0.9l-0.7-0.7V20.5z M11,7.5h6.4L18.1,8V2.5h-7.9v6.3L11,7.9V7.5z M11,3.3h6.4v3.4H11V3.3z"/>
	</g>
</g>
</svg>
