<?xml version="1.0" encoding="utf-8"?>
<!-- Generator: Adobe Illustrator 22.0.1, SVG Export Plug-In . SVG Version: 6.00 Build 0)  -->
<!DOCTYPE svg PUBLIC "-//W3C//DTD SVG 1.1//EN" "http://www.w3.org/Graphics/SVG/1.1/DTD/svg11.dtd">
<svg version="1.1" id="图层_1" xmlns="http://www.w3.org/2000/svg" xmlns:xlink="http://www.w3.org/1999/xlink" x="0px" y="0px"
	 viewBox="0 0 25 25" style="enable-background:new 0 0 25 25;" xml:space="preserve">
<style type="text/css">
	.st0{fill:#93A6D8;}
</style>
<g>
	<g>
		<g>
			<path class="st0" d="M0.5,5.1v14.7h6.9V5.1H0.5z M6.6,19.1H1.2v-3.2h5.4V19.1z M6.6,15.2H1.2v-2.7h5.4V15.2z M6.6,11.8H1.2V9.1
				h5.4V11.8z M6.6,8.3H1.2V5.9h5.4V8.3z"/>
		</g>
	</g>
	<g>
		<path class="st0" d="M17.3,2.6v4.7h7.2V2.6H17.3z M23.1,5.8h-4.2V4.1h4.2V5.8z"/>
		<path class="st0" d="M17.3,22.4h7.2v-4.7h-7.2V22.4z M18.8,19.2h4.2v1.7h-4.2V19.2z"/>
		<path class="st0" d="M17.3,14.9h7.2v-4.7h-7.2V14.9z M18.8,11.6h4.2v1.7h-4.2V11.6z"/>
	</g>
	<g>
		<path class="st0" d="M13,8.3L8.8,9.5L9,10.2L13.2,9l0.2,2l2.1-3.1L12.1,7L13,8.3z"/>
		<path class="st0" d="M12.1,18l3.4-0.9L13.4,14l-0.2,2L9,14.8l-0.2,0.7l4.2,1.2L12.1,18z"/>
	</g>
</g>
</svg>
