<?xml version="1.0" encoding="utf-8"?>
<!-- Generator: Adobe Illustrator 22.0.1, SVG Export Plug-In . SVG Version: 6.00 Build 0)  -->
<!DOCTYPE svg PUBLIC "-//W3C//DTD SVG 1.1//EN" "http://www.w3.org/Graphics/SVG/1.1/DTD/svg11.dtd">
<svg version="1.1" id="图层_1" xmlns="http://www.w3.org/2000/svg" xmlns:xlink="http://www.w3.org/1999/xlink" x="0px" y="0px"
	 viewBox="0 0 25 25" style="enable-background:new 0 0 25 25;" xml:space="preserve">
<style type="text/css">
	.st0{fill:#93A6D8;}
</style>
<g>
	<g>
		<path class="st0" d="M12.4,19.2c0.5,0.5,1,0.9,1.7,1.2l0.4-0.7c-0.6-0.3-1.1-0.7-1.5-1.1L12.4,19.2z M14.8,20.8
			c0.6,0.3,1.3,0.5,2,0.7l0.2-0.7c-0.6-0.2-1.3-0.4-1.8-0.6L14.8,20.8z M11.8,16.5L11.8,16.5l-0.1-0.4h-2v0.7h1.4
			c0.1,0.6,0.4,1.2,0.8,1.7l0.6-0.5C12.1,17.7,11.9,17.1,11.8,16.5z M19.4,21.2c-0.6,0-1.1-0.1-1.7-0.2l-0.1,0.7
			c0.6,0.1,1.2,0.2,1.8,0.2l-0.7,2.8l4.2-3.2l-4.2-2.7L19.4,21.2z M3.7,16.1l-0.2,0.7c0.2,0.1,0.5,0.1,0.7,0.1h1.4v-0.7H4.2
			C4.1,16.2,3.9,16.1,3.7,16.1z M2.2,11.1H1.5v2h0.7V11.1z M2.2,14.3l-0.7,0c0,0.8,0.4,1.5,1,2L3,15.7C2.5,15.4,2.3,14.8,2.2,14.3z
			 M4.7,1.1V0.3H4.2c-0.6,0-1.2,0.2-1.6,0.5L3,1.5c0.3-0.3,0.8-0.4,1.2-0.4H4.7z M2.2,5H1.5v2h0.7V5z M2.2,8H1.5v2h0.7V8z M13.8,0.3
			h-2v0.7h2V0.3z M16.8,0.3h-2v0.7h2V0.3z M19.8,0.3h-2v0.7h2V0.3z M10.8,0.3h-2v0.7h2V0.3z M2.2,3.1c0-0.3,0.1-0.7,0.2-1L1.8,1.7
			C1.6,2.1,1.5,2.6,1.5,3.1v0.8h0.7V3.1z M21.6,16l0.3,0.7c0.7-0.3,1.3-1,1.5-1.7l-0.7-0.2C22.5,15.3,22.1,15.7,21.6,16z M22.8,13.6
			h0.7v-2h-0.7V13.6z M7.8,0.3h-2v0.7h2V0.3z M23.4,2.3l-0.7,0.2c0,0.2,0.1,0.3,0.1,0.5v1.4h0.7V3.1C23.5,2.8,23.5,2.6,23.4,2.3z
			 M22.8,10.6h0.7v-2h-0.7V10.6z M22.9,1.3c-0.5-0.6-1.2-1-2-1l0,0.7c0.6,0,1.1,0.3,1.5,0.7L22.9,1.3z M22.8,7.6h0.7v-2h-0.7V7.6z
			 M18.7,16.9h2l0-0.7h-2V16.9z M6.7,16.9h2v-0.7h-2V16.9z M12.7,16.9h2v-0.7h-2V16.9z M15.7,16.9h2v-0.7h-2V16.9z"/>
	</g>
</g>
<g>
	<g>
		<path class="st0" d="M11.1,9.5h2.7l0.4,1.3h2.5l-2.9-7.6h-2.6l-2.9,7.6h2.4L11.1,9.5z M12.5,5.1l0.8,2.7h-1.7L12.5,5.1z M7.8,12.6
			v1h9.4v-1H7.8z"/>
	</g>
</g>
</svg>
