<?xml version="1.0" encoding="utf-8"?>
<!-- Generator: Adobe Illustrator 22.0.1, SVG Export Plug-In . SVG Version: 6.00 Build 0)  -->
<!DOCTYPE svg PUBLIC "-//W3C//DTD SVG 1.1//EN" "http://www.w3.org/Graphics/SVG/1.1/DTD/svg11.dtd">
<svg version="1.1" id="图层_1" xmlns="http://www.w3.org/2000/svg" xmlns:xlink="http://www.w3.org/1999/xlink" x="0px" y="0px"
	 viewBox="0 0 25 25" style="enable-background:new 0 0 25 25;" xml:space="preserve">
<style type="text/css">
	.st0{fill:#93A6D8;}
</style>
<g>
	<g>
		<path class="st0" d="M12.1,21h0.7v-2h-0.7V21z M12.1,18h0.7v-2h-0.7V18z M12.1,15h0.7v-2h-0.7V15z M12.1,24h0.7v-2h-0.7V24z
			 M12.1,12h0.7v-2h-0.7V12z M12.1,6h0.7V4h-0.7V6z M12.1,3h0.7V1h-0.7V3z M12.1,9h0.7V7h-0.7V9z M5.1,15.3c0.2-0.2,0.6-0.5,1.2-1
			c1-0.8,1.7-1.6,2.1-2.3C8.8,11.3,9,10.6,9,9.8c0-0.7-0.2-1.4-0.5-1.9c-0.3-0.6-0.8-1-1.4-1.3C6.5,6.3,5.7,6.1,4.6,6.1
			c-1,0-1.8,0.1-2.4,0.4c-0.6,0.3-1,0.7-1.3,1.3c-0.3,0.6-0.5,1.3-0.7,2.3l3,0.3c0.1-0.7,0.2-1.2,0.5-1.5C4,8.7,4.3,8.5,4.7,8.5
			c0.4,0,0.7,0.1,0.9,0.4C5.9,9.2,6,9.5,6,9.9c0,0.4-0.1,0.7-0.4,1.1c-0.2,0.4-0.8,1-1.7,1.7c-1.5,1.2-2.4,2.3-3,3.2
			c-0.5,0.9-0.8,1.9-0.9,2.9h9.1v-2.8H4.4C4.6,15.7,4.9,15.5,5.1,15.3z M21,15.5C21,15.4,21,15.4,21,15.5c0.2-0.2,0.6-0.5,1.2-1
			c1-0.8,1.7-1.6,2.1-2.3c0.4-0.7,0.6-1.5,0.6-2.3c0-0.8-0.2-1.5-0.5-2.1c-0.4-0.6-0.9-1.1-1.5-1.4c-0.6-0.3-1.5-0.4-2.6-0.4
			c-1,0-1.9,0.2-2.5,0.5c-0.6,0.3-1.1,0.8-1.5,1.4c-0.3,0.6-0.6,1.4-0.7,2.4l-0.1,0.4l3.7,0.3l0-0.4c0.1-0.7,0.3-1.1,0.4-1.2
			C19.9,9.1,20.1,9,20.4,9c0.2,0,0.4,0.1,0.6,0.3c0.2,0.2,0.2,0.4,0.2,0.7c0,0.3-0.1,0.6-0.3,0.9c-0.1,0.2-0.5,0.7-1.6,1.6
			c-1.4,1.2-2.4,2.3-2.9,3.2c-0.5,0.9-0.9,1.9-1,3l0,0.4H25v-3.5H21z M24.2,18.2h-7.8c0.1-0.8,0.4-1.5,0.8-2.2
			c0.5-0.8,1.4-1.8,2.8-3c0.9-0.8,1.5-1.3,1.7-1.8c0.3-0.4,0.4-0.9,0.4-1.3c0-0.5-0.2-0.9-0.5-1.2c-0.3-0.3-0.7-0.5-1.2-0.5
			c-0.5,0-0.9,0.2-1.2,0.5C18.9,9,18.8,9.5,18.7,10l-2.1-0.2c0.1-0.7,0.3-1.2,0.5-1.6c0.3-0.5,0.6-0.8,1.1-1.1
			c0.5-0.3,1.2-0.4,2.1-0.4c1,0,1.7,0.1,2.2,0.4c0.5,0.2,0.9,0.6,1.2,1.1c0.3,0.5,0.4,1.1,0.4,1.7c0,0.7-0.2,1.3-0.5,1.9
			c-0.3,0.6-1,1.3-1.9,2.1c-0.6,0.5-1,0.8-1.2,1c-0.2,0.2-0.4,0.4-0.7,0.8l-0.6,0.7h5V18.2z"/>
	</g>
</g>
</svg>
