<?xml version="1.0" encoding="utf-8"?>
<!-- Generator: Adobe Illustrator 22.0.1, SVG Export Plug-In . SVG Version: 6.00 Build 0)  -->
<!DOCTYPE svg PUBLIC "-//W3C//DTD SVG 1.1//EN" "http://www.w3.org/Graphics/SVG/1.1/DTD/svg11.dtd">
<svg version="1.1" id="图层_1" xmlns="http://www.w3.org/2000/svg" xmlns:xlink="http://www.w3.org/1999/xlink" x="0px" y="0px"
	 viewBox="0 0 25 25" style="enable-background:new 0 0 25 25;" xml:space="preserve">
<style type="text/css">
	.st0{fill:#93A6D8;}
</style>
<g>
	<g>
		<path class="st0" d="M0.8,9.8H0v2h0.8V9.8z M0.8,12.8H0v2h0.8V12.8z M4.4,6.8h-2v0.8h2V6.8z M7.4,7.5V6.8h-2v0.8H7.4z M0.8,15.7
			L0.1,16c0.3,0.6,0.9,1,1.5,1h0.5v-0.8H1.7C1.3,16.2,1,16,0.8,15.7z M20.3,17v-0.8h-2V17H20.3z M20.5,7.5h2V6.8h-2V7.5z M10.4,7.5
			V6.8h-2v0.8H10.4z M19.5,7.5V6.8h-2v0.8H19.5z M16.5,7.5V6.8h-2v0.8H16.5z M13.4,7.5V6.8h-2v0.8H13.4z M0.8,8.5
			C0.8,8,1,7.7,1.5,7.6L1.3,6.8C0.5,7,0,7.7,0,8.5v0.3h0.8V8.5z M14.3,17v-0.8h-2V17H14.3z M24.2,14.7H25v-2h-0.8V14.7z M23.3,16.2
			h-2V17h2c0.7,0,1.4-0.5,1.6-1.1l-0.7-0.2C24.1,16,23.7,16.2,23.3,16.2z M15.3,17h2v-0.8h-2V17z M24.2,11.7H25v-2h-0.8V11.7z
			 M23.6,6.8l-0.1,0.8c0.5,0.1,0.8,0.5,0.8,0.9v0.2H25V8.5C25,7.6,24.4,6.9,23.6,6.8z M6.2,17h2v-0.8h-2V17z M3.2,17h2v-0.8h-2V17z
			 M14.8,21.1c0.6,0.3,1.3,0.5,2,0.7l0.2-0.7c-0.6-0.2-1.3-0.4-1.8-0.7L14.8,21.1z M11.8,16.8l-0.5,0.1v-0.6h-2V17H11
			c0.1,0.7,0.4,1.3,0.9,1.9l0.6-0.5C12.1,17.9,11.9,17.3,11.8,16.8z M12.4,19.5c0.5,0.5,1,0.9,1.7,1.3l0.4-0.7
			c-0.6-0.3-1.1-0.7-1.5-1.1L12.4,19.5z M19.4,21.4c-0.6,0-1.1-0.1-1.7-0.2L17.5,22c0.6,0.1,1.2,0.2,1.8,0.2L18.7,25l4.2-3.2
			L18.7,19L19.4,21.4z M21.9,9.4H3.1v4.5h18.8V9.4z M21.9,0H3.1v4.5h18.8V0z"/>
	</g>
</g>
</svg>
