<?xml version="1.0" encoding="utf-8"?>
<!-- Generator: Adobe Illustrator 22.0.1, SVG Export Plug-In . SVG Version: 6.00 Build 0)  -->
<!DOCTYPE svg PUBLIC "-//W3C//DTD SVG 1.1//EN" "http://www.w3.org/Graphics/SVG/1.1/DTD/svg11.dtd">
<svg version="1.1" id="图层_1" xmlns="http://www.w3.org/2000/svg" xmlns:xlink="http://www.w3.org/1999/xlink" x="0px" y="0px"
	 viewBox="0 0 25 25" style="enable-background:new 0 0 25 25;" xml:space="preserve">
<style type="text/css">
	.st0{fill:none;}
	.st1{fill:#93A6D8;}
</style>
<g>
	<polygon class="st0" points="18,12.6 16.5,12.6 16.5,14.9 14.2,14.9 14.2,16.4 16.5,16.4 16.5,18.6 18,18.6 18,16.4 20.2,16.4 
		20.2,14.9 18,14.9 	"/>
	<path class="st0" d="M11.9,15.6c0-2.7,2-4.9,4.5-5.3V1.6H4v21.8h12.5v-2.5C13.9,20.5,11.9,18.3,11.9,15.6z M7.3,5h6v0.7h-6V5z
		 M7.3,9.9h6v0.7h-6V9.9z"/>
	<rect x="7.3" y="9.9" class="st1" width="6" height="0.7"/>
	<rect x="7.3" y="5" class="st1" width="6" height="0.7"/>
	<path class="st1" d="M18,10.4V0.1H2.5v24.8H18v-4c2.6-0.4,4.5-2.6,4.5-5.3C22.5,12.9,20.5,10.7,18,10.4z M16.5,23.4H4V1.6h12.5v8.8
		c-2.6,0.4-4.5,2.6-4.5,5.3c0,2.7,2,4.9,4.5,5.3V23.4z M20.2,16.4H18v2.3h-1.5v-2.3h-2.3v-1.5h2.3v-2.3H18v2.3h2.3V16.4z"/>
</g>
</svg>
