<?xml version="1.0" encoding="utf-8"?>
<!-- Generator: Adobe Illustrator 18.0.0, SVG Export Plug-In . SVG Version: 6.00 Build 0)  -->
<!DOCTYPE svg PUBLIC "-//W3C//DTD SVG 1.1//EN" "http://www.w3.org/Graphics/SVG/1.1/DTD/svg11.dtd">
<svg version="1.1" id="图层_1" xmlns="http://www.w3.org/2000/svg" xmlns:xlink="http://www.w3.org/1999/xlink" x="0px" y="0px"
	 viewBox="0 0 25 25" enable-background="new 0 0 25 25" xml:space="preserve">
<g>
	<g>
		<path fill="#93A6D8" d="M9.3,16v-3.5l1.7,0.5L8.7,9.5l-2.4,3.4L8,12.5v3.9c0,0.5,0.4,0.9,0.9,0.9h6.7L14.7,16H9.3z M17,12.5V8.6
			c0-0.5-0.4-0.9-0.9-0.9H9.4L10.3,9h5.4v3.5L14,12.1l2.3,3.4l2.4-3.4L17,12.5z"/>
	</g>
</g>
<g>
	<path fill="#93A6D8" d="M23,9.2l1.4-0.5c-0.2-0.8-0.6-1.5-1-2.2C22.8,5.3,22,4.2,21,3.3l-1,1.1C21.4,5.7,22.4,7.4,23,9.2z"/>
	<path fill="#93A6D8" d="M24.9,10.8L23.4,11c0.3,1.9,0,3.8-0.7,5.6l1.4,0.6C24.9,15.1,25.2,12.9,24.9,10.8z"/>
	<path fill="#93A6D8" d="M19.3,2c-1.8-1.2-3.9-1.9-6.1-2l-0.1,1.5c1.9,0.1,3.7,0.7,5.3,1.8L19.3,2z"/>
	<path fill="#93A6D8" d="M17.8,22.1c-0.3,0.2-0.6,0.3-0.9,0.5l0.6,1.4c0.4-0.2,0.7-0.3,1.1-0.5c1.9-1,3.5-2.6,4.6-4.4l-1.3-0.8
		C20.9,19.9,19.5,21.2,17.8,22.1z"/>
	<path fill="#93A6D8" d="M7.2,2.9c1.3-0.7,2.6-1.1,4.1-1.3l-0.2-1.5C9.5,0.2,7.9,0.7,6.5,1.5C6,1.8,5.6,2.1,5.2,2.4L6,3.6
		C6.4,3.3,6.8,3.1,7.2,2.9z"/>
	<path fill="#93A6D8" d="M9.5,23.1L9,24.5c2.1,0.6,4.3,0.6,6.4,0.1l-0.4-1.5C13.2,23.6,11.3,23.6,9.5,23.1z"/>
	<path fill="#93A6D8" d="M4.6,4.8L3.5,3.8C2,5.3,0.9,7.2,0.4,9.3l1.5,0.4C2.3,7.9,3.3,6.2,4.6,4.8z"/>
	<path fill="#93A6D8" d="M3.4,18.7l-1.2,0.9c1.2,1.8,2.9,3.2,4.8,4.2l0.7-1.4C6,21.6,4.5,20.3,3.4,18.7z"/>
	<path fill="#93A6D8" d="M1.5,11.6L0,11.4c-0.2,2.2,0.2,4.3,1.1,6.3l1.4-0.6C1.7,15.4,1.4,13.5,1.5,11.6z"/>
</g>
</svg>
