<?xml version="1.0" encoding="utf-8"?>
<!-- Generator: Adobe Illustrator 18.0.0, SVG Export Plug-In . SVG Version: 6.00 Build 0)  -->
<!DOCTYPE svg PUBLIC "-//W3C//DTD SVG 1.1//EN" "http://www.w3.org/Graphics/SVG/1.1/DTD/svg11.dtd">
<svg version="1.1" id="图层_1" xmlns="http://www.w3.org/2000/svg" xmlns:xlink="http://www.w3.org/1999/xlink" x="0px" y="0px"
	 viewBox="0 0 50 50" enable-background="new 0 0 50 50" xml:space="preserve">
<g>
	<path fill="#FFFFFF" stroke="#02709F" stroke-width="0.4" d="M18.1,15.8C9.6,14,5.1,18.4,5.8,22.2l0.1,0.2c-6.7,1.1-4.9,9-1.7,9
		l0.3,0c-0.8,3.7,7,7.5,11.3,5.6l0.3-0.3c1.6,3.3,7.1,3.9,12.5,4c4.7,0.1,7.5-0.3,9.5-2.3l0.3,0.1c7.6,0.6,11-4.6,9.3-8.4l0.4-0.1
		c2.6-0.7,2.9-6.6-1.5-7.5l0.1-0.2c1.9-3.9-2.6-7.5-8.9-6.8l-0.4-0.2c-4.5-4.1-17.4-3.4-18.9,0.6L18.1,15.8z"/>
</g>
</svg>
