<?xml version="1.0" encoding="utf-8"?>
<!-- Generator: Adobe Illustrator 18.0.0, SVG Export Plug-In . SVG Version: 6.00 Build 0)  -->
<!DOCTYPE svg PUBLIC "-//W3C//DTD SVG 1.1//EN" "http://www.w3.org/Graphics/SVG/1.1/DTD/svg11.dtd">
<svg version="1.1" id="图层_1" xmlns="http://www.w3.org/2000/svg" xmlns:xlink="http://www.w3.org/1999/xlink" x="0px" y="0px"
	 viewBox="0 0 50 50" enable-background="new 0 0 50 50" xml:space="preserve">
<g display="none">
	<path display="inline" fill="#FFFFFF" stroke="#02709F" stroke-width="0.4" d="M18.1,15.8C9.6,14,5.1,18.4,5.8,22.2l0.1,0.2
		c-6.7,1.1-4.9,9-1.7,9l0.3,0c-0.8,3.7,7,7.5,11.3,5.6l0.3-0.3c1.6,3.3,7.1,3.9,12.5,4c4.7,0.1,7.5-0.3,9.5-2.3l0.3,0.1
		c7.6,0.6,11-4.6,9.3-8.4l0.4-0.1c2.6-0.7,2.9-6.6-1.5-7.5l0.1-0.2c1.9-3.9-2.6-7.5-8.9-6.8l-0.4-0.2c-4.5-4.1-17.4-3.4-18.9,0.6
		L18.1,15.8z"/>
</g>
<g display="none">
	<g display="inline">
		<path fill="#02709F" stroke="#FFFFFF" stroke-width="0.4" d="M49.5,21.1c0,5.3-11,9.5-24.5,9.5c-13.5,0-24.5-4.3-24.5-9.5v13.9
			c0,5.3,11,9.5,24.5,9.5c13.5,0,24.5-4.3,24.5-9.5V21.1z"/>
		<ellipse fill="#02709F" stroke="#FFFFFF" stroke-width="0.4" cx="25" cy="21.1" rx="24.5" ry="9.5"/>
		<ellipse fill="#02709F" stroke="#FFFFFF" stroke-width="0.4" cx="25" cy="14.9" rx="24.4" ry="9.5"/>
		<path fill="#02709F" stroke="#FFFFFF" stroke-width="0.4" d="M49.4,14.9c0,5.2-10.9,9.5-24.4,9.5S0.6,20.1,0.6,14.9v6.7
			c0,5.2,10.9,9.5,24.4,9.5s24.4-4.2,24.4-9.5V14.9z"/>
	</g>
	<polygon display="inline" fill="#FFFFFF" points="19.4,10.8 21.4,13.8 13.8,15.6 15.5,14.2 3.6,12.1 6.6,9.9 18,11.9 	"/>
	<polygon display="inline" fill="#FFFFFF" points="30.2,18.1 28.8,15 35.7,13.6 34.5,14.7 46,16.6 43.2,18.8 31.8,16.7 	"/>
	<polygon display="inline" fill="#FFFFFF" points="26.4,9.1 34.1,7 34.2,10.3 32.3,9.9 28.5,13.1 24.9,12.5 28.8,9.5 	"/>
	<polygon display="inline" fill="#FFFFFF" points="23.1,21 15.7,22.3 15.5,18.9 17.6,19.4 21.6,15.9 25.2,16.5 20.9,20.3 	"/>
	<g>
		<g display="inline">
			<line fill="none" stroke="#FFFFFF" stroke-width="0.3" x1="19.5" y1="15.4" x2="26" y2="15.8"/>
			<line fill="none" stroke="#FFFFFF" stroke-width="0.3" x1="5.5" y1="14.5" x2="12.3" y2="14.9"/>
			<line fill="none" stroke="#FFFFFF" stroke-width="0.3" x1="2.7" y1="11.5" x2="8.2" y2="11.9"/>
			<g>
				<line fill="none" stroke="#FFFFFF" stroke-width="0.3" x1="8.8" y1="11.7" x2="2" y2="17.3"/>
				<line fill="none" stroke="#FFFFFF" stroke-width="0.3" x1="15.5" y1="12.5" x2="6" y2="20.4"/>
				<line fill="none" stroke="#FFFFFF" stroke-width="0.3" x1="22.8" y1="12.8" x2="11.3" y2="22.3"/>
			</g>
			<line fill="none" stroke="#FFFFFF" stroke-width="0.3" x1="8.9" y1="18" x2="15.7" y2="18.4"/>
		</g>
		<g display="inline">
			<line fill="none" stroke="#FFFFFF" stroke-width="0.3" x1="38.3" y1="18.7" x2="45.1" y2="19.2"/>
			<line fill="none" stroke="#FFFFFF" stroke-width="0.3" x1="24.6" y1="17.9" x2="31.4" y2="18.3"/>
			<g>
				<line fill="none" stroke="#FFFFFF" stroke-width="0.3" x1="27.6" y1="14.9" x2="17.3" y2="23.6"/>
				<line fill="none" stroke="#FFFFFF" stroke-width="0.3" x1="34.8" y1="15.5" x2="24.7" y2="24.1"/>
				<line fill="none" stroke="#FFFFFF" stroke-width="0.3" x1="41.6" y1="15.9" x2="32.5" y2="23.9"/>
				<line fill="none" stroke="#FFFFFF" stroke-width="0.3" x1="49.1" y1="15.1" x2="42.8" y2="21.3"/>
			</g>
			<line fill="none" stroke="#FFFFFF" stroke-width="0.3" x1="14" y1="20.5" x2="20.8" y2="20.9"/>
			<line fill="none" stroke="#FFFFFF" stroke-width="0.3" x1="27.9" y1="21.4" x2="34.7" y2="21.8"/>
		</g>
	</g>
	<g>
		<line display="inline" fill="none" stroke="#FFFFFF" stroke-width="0.3" x1="14.7" y1="6.5" x2="8.3" y2="12"/>
		<line display="inline" fill="none" stroke="#FFFFFF" stroke-width="0.3" x1="23.7" y1="5.5" x2="15.4" y2="12.8"/>
	</g>
	<line fill="none" stroke="#FFFFFF" stroke-width="0.3" x1="41.5" y1="9.9" x2="46.1" y2="10.5"/>
	<g>
		<line display="inline" fill="none" stroke="#FFFFFF" stroke-width="0.3" x1="31.3" y1="5.8" x2="20" y2="15.2"/>
		<line display="inline" fill="none" stroke="#FFFFFF" stroke-width="0.3" x1="37.6" y1="6.6" x2="26.7" y2="15.7"/>
		<line display="inline" fill="none" stroke="#FFFFFF" stroke-width="0.3" x1="42.8" y1="8.6" x2="34.1" y2="16.1"/>
		<line display="inline" fill="none" stroke="#FFFFFF" stroke-width="0.3" x1="47.3" y1="11.3" x2="41.1" y2="16.6"/>
	</g>
	<line fill="none" stroke="#FFFFFF" stroke-width="0.3" x1="17.1" y1="11.6" x2="23.9" y2="12"/>
	<line fill="none" stroke="#FFFFFF" stroke-width="0.3" x1="31" y1="12.5" x2="37.8" y2="12.9"/>
	<line fill="none" stroke="#FFFFFF" stroke-width="0.3" x1="44.8" y1="13.4" x2="48.8" y2="13.6"/>
</g>
<g display="none">
	<g display="inline">
		<g>
			<g>
				<g>
					<rect x="7.1" y="17.5" fill="#02709F" stroke="#FFFFFF" stroke-width="0.4" width="32" height="31.9"/>
					<polygon fill="#02709F" stroke="#FFFFFF" stroke-width="0.4" points="43.1,45.4 43.1,13.5 39,17.5 39,49.4 					"/>
				</g>
			</g>
			<g>
				<polygon fill="#02709F" stroke="#FFFFFF" stroke-width="0.4" points="12.9,0.6 7.1,4.6 39,4.6 43.1,0.6 				"/>
				<rect x="7.1" y="4.6" fill="#02709F" stroke="#FFFFFF" stroke-width="0.4" width="32" height="12.9"/>
				<polygon fill="#02709F" stroke="#FFFFFF" stroke-width="0.4" points="43.1,13.5 43.1,0.6 39,4.6 39,17.5 				"/>
				<line fill="#02709F" stroke="#FFFFFF" stroke-width="0.4" x1="39" y1="17.5" x2="7.1" y2="17.5"/>
				<line fill="#02709F" stroke="#FFFFFF" stroke-width="0.4" x1="39" y1="17.5" x2="43.1" y2="13.5"/>
				<rect x="12.3" y="6.3" fill="#FFFFFF" width="5.2" height="2.7"/>
				<rect x="29.2" y="6.3" fill="#FFFFFF" width="5.2" height="2.7"/>
				<rect x="12.3" y="13" fill="#FFFFFF" width="5.2" height="2.7"/>
				<rect x="29.2" y="13" fill="#FFFFFF" width="5.2" height="2.7"/>
				<line stroke="#FFFFFF" stroke-width="0.4" x1="15.8" y1="7.6" x2="31.6" y2="7.6"/>
				<line stroke="#FFFFFF" stroke-width="0.4" x1="15.8" y1="14.3" x2="31.6" y2="14.3"/>
				<line stroke="#FFFFFF" stroke-width="0.4" x1="14.9" y1="14.3" x2="31.6" y2="7.6"/>
				<line stroke="#FFFFFF" stroke-width="0.4" x1="14.9" y1="7.6" x2="31.6" y2="14.3"/>
			</g>
		</g>
		<g>
			<polygon fill="#FFFFFF" points="23.8,28.8 23.8,21.9 24.9,21.9 23.2,19.3 21.5,21.9 22.6,21.9 22.6,28.8 			"/>
			<polygon fill="#FFFFFF" points="20.2,29.8 15.3,24.9 16.2,24.1 13.1,23.5 13.7,26.6 14.6,25.7 19.4,30.6 			"/>
			<polygon fill="#FFFFFF" points="18.4,33 11.5,33 11.5,31.9 8.9,33.6 11.5,35.3 11.5,34.1 18.4,34.1 			"/>
			<polygon fill="#FFFFFF" points="19.4,36.5 14.6,41.4 13.7,40.6 13.1,43.7 16.2,43.1 15.3,42.2 20.2,37.3 			"/>
			<polygon fill="#FFFFFF" points="22.6,38.3 22.6,45.2 21.5,45.2 23.2,47.9 24.9,45.2 23.8,45.2 23.8,38.3 			"/>
			<polygon fill="#FFFFFF" points="26.2,37.3 31,42.2 30.2,43.1 33.3,43.7 32.7,40.6 31.8,41.4 26.9,36.5 			"/>
			<polygon fill="#FFFFFF" points="27.9,34.1 34.9,34.1 34.9,35.3 37.5,33.6 34.9,31.9 34.9,33 27.9,33 			"/>
			<polygon fill="#FFFFFF" points="26.9,30.6 31.8,25.7 32.7,26.6 33.3,23.5 30.2,24.1 31,24.9 26.2,29.8 			"/>
		</g>
	</g>
	<g display="inline">
		<circle fill="#FFFFFF" cx="23.3" cy="33.5" r="7.2"/>
	</g>
</g>
<g display="none">
	<rect x="0.7" y="11.7" display="inline" fill="#096692" stroke="#FFFFFF" stroke-width="0.4" width="36.8" height="37.5"/>
	<polyline display="inline" fill="none" stroke="#000000" stroke-width="1.425" points="7.3,40.9 15.1,40.9 25.8,18.9 33.2,18.9 	
		"/>
	<g display="inline">
		<polygon points="31,15 31,22.8 35.7,19.1 		"/>
	</g>
	<g display="inline">
		<polygon points="8.6,44.9 8.6,37.1 3.9,40.8 		"/>
	</g>
	<g display="inline">
		<polygon fill="#FFFFFF" points="7.6,45.6 7.6,37.8 2.9,41.6 		"/>
	</g>
	<g display="inline">
		<polygon fill="#FFFFFF" points="30.2,15.6 30.2,23.4 34.9,19.7 		"/>
	</g>
	<g display="inline">
		<polygon points="8.6,23 8.6,15.2 3.9,18.9 		"/>
	</g>
	<g display="inline">
		<polygon fill="#FFFFFF" points="7.6,23.7 7.6,15.9 2.9,19.7 		"/>
	</g>
	<polyline display="inline" fill="none" stroke="#000000" stroke-width="1.425" points="33.4,41 25.7,41 14.8,18.9 8.3,18.9 	"/>
	<polyline display="inline" fill="none" stroke="#FFFFFF" stroke-width="1.425" points="33.2,41.7 25.1,41.7 14.2,19.6 5.9,19.6 	
		"/>
	<polygon display="inline" fill="#096692" stroke="#FFFFFF" stroke-width="0.4" points="49.3,0.8 37.5,11.7 0.6,11.7 13.8,0.8 	"/>
	<polygon display="inline" fill="#096692" stroke="#FFFFFF" stroke-width="0.4" points="49.4,34.8 49.4,0.8 37.5,11.7 37.5,49 	"/>
	<polyline display="inline" fill="none" stroke="#FFFFFF" stroke-width="1.425" points="5.9,41.6 13.7,41.6 24.5,19.7 33,19.7 	"/>
	<g display="inline">
		<polygon points="31,37 31,44.8 35.7,41.1 		"/>
	</g>
	<g display="inline">
		<polygon fill="#FFFFFF" points="30.2,37.7 30.2,45.4 34.9,41.7 		"/>
	</g>
	<g display="inline">
		<polygon points="37.5,2.7 39.1,1.5 43.9,3.1 35.4,5 37.3,3.1 28.8,3.1 29.4,2.7 		"/>
		<polygon fill="#FFFFFF" points="30.8,7.5 32.4,6.3 36.6,7.7 28.1,9.5 29.5,8.1 21.1,8.1 22.4,7.5 		"/>
		<polygon fill="#FFFFFF" points="26.7,4.3 25.9,5.1 19,5.1 17.6,5.9 13.3,4.5 21.8,2.7 19.7,4.3 		"/>
		<polygon fill="#FFFFFF" points="20.6,9.1 19.6,9.9 12.6,9.9 11.5,10.7 7.3,9.3 15.8,7.5 13.6,9.1 		"/>
		<polygon fill="#FFFFFF" points="37.5,3.1 39.1,1.9 43.3,3.3 34.8,5.1 36.4,3.8 27.9,3.8 29.1,3.1 		"/>
	</g>
</g>
<g display="none">
	<rect x="9.2" y="8.9" display="inline" fill="#096692" stroke="#FFFFFF" stroke-width="0.4" width="12.2" height="40.9"/>
	<polygon display="inline" fill="#096692" stroke="#FFFFFF" stroke-width="0.4" points="21.5,8.9 9.2,8.9 20.2,0.2 30.9,0.2 	"/>
	<polygon display="inline" fill="#096692" stroke="#FFFFFF" stroke-width="0.4" points="30.9,0.2 30.9,39.3 21.5,49.9 21.5,8.9 	"/>
	<line display="inline" fill="#096692" stroke="#FFFFFF" stroke-width="0.4" x1="28" y1="9.4" x2="28" y2="2.8"/>
	<line display="inline" fill="#096692" stroke="#FFFFFF" stroke-width="0.4" x1="28" y1="22.7" x2="28" y2="16.1"/>
	<line display="inline" fill="#096692" stroke="#FFFFFF" stroke-width="0.4" x1="28" y1="36" x2="28" y2="29.4"/>
	<g display="inline">
		<line fill="#096692" stroke="#FFFFFF" stroke-width="0.4" x1="30.9" y1="32.8" x2="21.5" y2="43.1"/>
		<line fill="#096692" stroke="#FFFFFF" stroke-width="0.4" x1="30.9" y1="26.3" x2="21.5" y2="36.2"/>
		<line fill="#096692" stroke="#FFFFFF" stroke-width="0.4" x1="30.9" y1="19.8" x2="21.5" y2="29.4"/>
		<line fill="#096692" stroke="#FFFFFF" stroke-width="0.4" x1="30.9" y1="13.2" x2="21.5" y2="22.6"/>
		<line fill="#096692" stroke="#FFFFFF" stroke-width="0.4" x1="30.9" y1="6.7" x2="21.5" y2="15.7"/>
	</g>
	<line display="inline" fill="#096692" stroke="#FFFFFF" stroke-width="0.4" x1="21.5" y1="8.9" x2="30.9" y2="0.2"/>
	<g display="inline">
		<line fill="#096692" stroke="#FFFFFF" stroke-width="0.4" x1="21.5" y1="43" x2="9.2" y2="43"/>
		<line fill="#096692" stroke="#FFFFFF" stroke-width="0.4" x1="21.5" y1="36.2" x2="9.2" y2="36.2"/>
		<line fill="#096692" stroke="#FFFFFF" stroke-width="0.4" x1="21.5" y1="29.4" x2="9.2" y2="29.4"/>
		<line fill="#096692" stroke="#FFFFFF" stroke-width="0.4" x1="21.5" y1="22.5" x2="9.2" y2="22.5"/>
		<line fill="#096692" stroke="#FFFFFF" stroke-width="0.4" x1="21.5" y1="15.7" x2="9.2" y2="15.7"/>
	</g>
	<line display="inline" fill="#096692" stroke="#FFFFFF" stroke-width="0.4" x1="24.8" y1="46.1" x2="24.8" y2="39.5"/>
	<line display="inline" fill="#096692" stroke="#FFFFFF" stroke-width="0.4" x1="24.8" y1="32.6" x2="24.8" y2="26"/>
	<line display="inline" fill="#096692" stroke="#FFFFFF" stroke-width="0.4" x1="24.8" y1="19.3" x2="24.8" y2="12.7"/>
</g>
<g display="none">
	<path display="inline" fill="#02709F" stroke="#FFFFFF" stroke-width="0.4" d="M49.8,17.7c0,5.3-11.1,9.6-24.8,9.6
		c-13.7,0-24.8-4.3-24.8-9.6v14.1c0,5.3,11.1,9.6,24.8,9.6c13.7,0,24.8-4.3,24.8-9.6V17.7z"/>
	<ellipse display="inline" fill="#02709F" stroke="#FFFFFF" stroke-width="0.4" cx="25" cy="17.7" rx="24.8" ry="9.6"/>
	<polygon display="inline" fill="#FFFFFF" points="19.3,13.9 21.4,17 13.6,18.8 15.3,17.4 3.4,15.3 6.4,13.1 17.9,15 	"/>
	<polygon display="inline" fill="#FFFFFF" points="30.2,21.4 28.8,18.2 35.8,16.8 34.6,17.9 46.2,19.9 43.4,22.1 31.9,19.9 	"/>
	<polygon display="inline" fill="#FFFFFF" points="26.4,12.2 34.2,10.1 34.3,13.4 32.4,13.1 28.6,16.2 24.9,15.7 28.9,12.6 	"/>
	<polygon display="inline" fill="#FFFFFF" points="23.1,24.2 15.6,25.6 15.3,22.2 17.5,22.7 21.6,19.2 25.2,19.8 20.8,23.6 	"/>
</g>
<g>
	<g>
		<rect x="0.1" y="25.6" fill="#02709F" stroke="#FFFFFF" stroke-width="0.4" width="37.4" height="12.1"/>
		<polygon fill="#02709F" stroke="#FFFFFF" stroke-width="0.4" points="0,25.7 15.1,13.4 50,13.4 37.5,25.7 		"/>
		<polygon fill="#02709F" stroke="#FFFFFF" stroke-width="0.4" points="37.5,38.1 50,24.6 50,13.4 37.5,25.6 		"/>
		<polygon fill="#FFFFFF" points="21.9,22.5 21.2,23.1 11.9,23.1 10.9,24 8.4,22.9 13.5,21.4 12.6,22.5 		"/>
		<polygon fill="#FFFFFF" points="29.2,17.9 28.5,18.5 19.2,18.5 18.3,19.4 15.7,18.3 20.8,16.9 19.9,17.9 		"/>
		<polygon fill="#FFFFFF" points="23.6,20.9 24.3,20.3 33.6,20.3 34.5,19.3 37.1,20.4 32,21.9 32.9,20.9 		"/>
		<polygon fill="#FFFFFF" points="28.4,16.3 29.1,15.7 38.5,15.7 39.4,14.8 41.9,15.9 36.8,17.3 37.7,16.3 		"/>
	</g>
	<rect x="14" y="27.6" display="none" stroke="#FFFFFF" stroke-width="0.4" width="8.8" height="8.8"/>
	<g display="none">
	</g>
</g>
</svg>
