<?xml version="1.0" encoding="utf-8"?>
<!-- Generator: Adobe Illustrator 22.0.1, SVG Export Plug-In . SVG Version: 6.00 Build 0)  -->
<!DOCTYPE svg PUBLIC "-//W3C//DTD SVG 1.1//EN" "http://www.w3.org/Graphics/SVG/1.1/DTD/svg11.dtd">
<svg version="1.1" id="图层_1" xmlns="http://www.w3.org/2000/svg" xmlns:xlink="http://www.w3.org/1999/xlink" x="0px" y="0px"
	 viewBox="0 0 52 50" style="enable-background:new 0 0 52 50;" xml:space="preserve">
<style type="text/css">
	.st0{fill:#25B17F;}
</style>
<g>
	<path class="st0" d="M51,42.9l-8.6-8.7c1.3-2.1,2-4.7,2-7.4c0-7.8-6.7-14.6-14.5-14.6c-2.6,0-5.1,0.7-7.2,2H9.6v2.5h10
		c-2.3,2.5-3.8,5.9-3.8,9.6c0,7.8,6.7,14.6,14.5,14.6c2.6,0,5-0.7,7.1-1.9l8.7,8.7c0.8,0.9,2.2,0.9,3.1,0l2.1-2.2
		C52.2,44.8,51.9,43.8,51,42.9z M30.4,36.7c-5.4,0-10.2-4.8-10.2-10.3c0-5.4,4.4-9.8,9.8-9.8c5.4,0,10.2,4.8,10.2,10.3
		C40.1,32.3,35.8,36.7,30.4,36.7z"/>
	<path class="st0" d="M32,44.8c0,0.9-0.7,1.6-1.6,1.6H5.4c-0.9,0-1.6-0.7-1.6-1.6V5.2c0-0.9,0.7-1.6,1.6-1.6h25.1
		c0.9,0,1.6,0.7,1.6,1.6v5h3.6v-5c0-2.9-2.3-5.2-5.2-5.2H5.4C2.5,0,0.2,2.3,0.2,5.2v39.5c0,2.9,2.3,5.2,5.2,5.2h25.1
		c2.9,0,5.2-2.3,5.2-5.2v-2.1H32V44.8z"/>
	<rect x="9.6" y="7.7" class="st0" width="16.8" height="2.5"/>
</g>
</svg>
