<svg xmlns="http://www.w3.org/2000/svg" width="40" height="45" viewBox="0 0 40 45">
  <metadata><?xpacket begin="﻿" id="W5M0MpCehiHzreSzNTczkc9d"?>
<x:xmpmeta xmlns:x="adobe:ns:meta/" x:xmptk="Adobe XMP Core 5.6-c138 79.159824, 2016/09/14-01:09:01        ">
   <rdf:RDF xmlns:rdf="http://www.w3.org/1999/02/22-rdf-syntax-ns#">
      <rdf:Description rdf:about=""/>
   </rdf:RDF>
</x:xmpmeta>
                                                                                                    
                                                                                                    
                                                                                                    
                                                                                                    
                                                                                                    
                                                                                                    
                                                                                                    
                                                                                                    
                                                                                                    
                                                                                                    
                                                                                                    
                                                                                                    
                                                                                                    
                                                                                                    
                                                                                                    
                                                                                                    
                                                                                                    
                                                                                                    
                                                                                                    
                                                                                                    
                           
<?xpacket end="w"?></metadata>
<defs>
    <style>
      .cls-1 {
        fill: #00bd85;
        fill-rule: evenodd;
      }
    </style>
  </defs>
  <path id="形状_1" data-name="形状 1" class="cls-1" d="M339.006,424.2c0-4.727-10.061-7.2-20-7.2s-20,2.473-20,7.2v10.179c0,0.02,0,.039,0,0.06h0v10.179s0,0,0,0h0V454.8c0,4.726,10.061,7.2,20,7.2,0.714,0,1.408-.076,2.119-0.1,0.577-.019,1.149-0.046,1.72-0.082,0.6-.04,1.219-0.03,1.808-0.087l-0.045-.044c4.486-.424,8.546-1.374,11.212-2.841l0.01,0.014c0.046-.026.073-0.052,0.118-0.078s0.118-.055.17-0.086l-0.006-.022c2.066-1.213,2.894-2.472,2.894-3.872v-10.18h0s0,0,0,0V434.439h0c0-.021,0-0.04,0-0.06V424.2Zm-2.888,30.6a1.537,1.537,0,0,1-.773.985c-1.95,1.493-7.56,3.309-16.339,3.309-8.1,0-13.514-1.549-15.83-2.961l-0.012.066a2.185,2.185,0,0,1-1.27-1.4v-6.264c0.054,0.032.116,0.061,0.172,0.092,0.1,0.056.2,0.11,0.3,0.164s0.226,0.121.344,0.179c0.2,0.1.4,0.192,0.613,0.284,0.112,0.05.229,0.1,0.344,0.144,0.143,0.059.288,0.118,0.437,0.175,0.1,0.04.208,0.08,0.314,0.118q0.344,0.126.7,0.245l0.077,0.026a52.323,52.323,0,0,0,27.61,0c0.03-.009.057-0.019,0.086-0.029,0.236-.078.468-0.158,0.694-0.241,0.107-.039.213-0.079,0.318-0.119,0.147-.057.291-0.116,0.433-0.174,0.116-.048.234-0.1,0.346-0.145q0.317-.138.613-0.284c0.118-.057.229-0.118,0.342-0.178s0.206-.109.305-0.165c0.056-.031.117-0.06,0.171-0.092V454.8Zm0-10.183c0,1.485-6.04,4.374-17.112,4.374s-17.112-2.889-17.112-4.374v-6.264c7.4,4.336,26.827,4.336,34.224,0v6.264Zm0-10.239c0,1.485-6.04,4.374-17.112,4.374s-17.112-2.889-17.112-4.374v-6.264c0.033,0.02.07,0.037,0.1,0.057q0.251,0.144.521,0.282c0.047,0.023.092,0.048,0.139,0.072,0.235,0.117.48,0.23,0.732,0.34l0.1,0.04q0.358,0.153.741,0.3l0.083,0.031a50.936,50.936,0,0,0,29.388,0l0.087-.033c0.253-.1.5-0.194,0.738-0.3,0.032-.015.066-0.028,0.1-0.041q0.379-.165.732-0.34l0.137-.072c0.181-.092.356-0.187,0.524-0.283,0.033-.019.071-0.037,0.1-0.056v6.264Z" transform="translate(-299 -417)"/>
</svg>
