<svg xmlns="http://www.w3.org/2000/svg" width="45.03" height="44.938" viewBox="0 0 45.03 44.938">
  <metadata><?xpacket begin="﻿" id="W5M0MpCehiHzreSzNTczkc9d"?>
<x:xmpmeta xmlns:x="adobe:ns:meta/" x:xmptk="Adobe XMP Core 5.6-c138 79.159824, 2016/09/14-01:09:01        ">
   <rdf:RDF xmlns:rdf="http://www.w3.org/1999/02/22-rdf-syntax-ns#">
      <rdf:Description rdf:about=""/>
   </rdf:RDF>
</x:xmpmeta>
                                                                                                    
                                                                                                    
                                                                                                    
                                                                                                    
                                                                                                    
                                                                                                    
                                                                                                    
                                                                                                    
                                                                                                    
                                                                                                    
                                                                                                    
                                                                                                    
                                                                                                    
                                                                                                    
                                                                                                    
                                                                                                    
                                                                                                    
                                                                                                    
                                                                                                    
                                                                                                    
                           
<?xpacket end="w"?></metadata>
<defs>
    <style>
      .cls-1 {
        fill: #00bd85;
        fill-rule: evenodd;
      }
    </style>
  </defs>
  <path id="形状_2_拷贝" data-name="形状 2 拷贝" class="cls-1" d="M1038.65,461.732c0.29-.042.58-0.079,0.87-0.133,0.47-.084.93-0.188,1.39-0.3,0.13-.032.26-0.064,0.39-0.1a22.571,22.571,0,0,0,14.14-11.251,0.379,0.379,0,0,0,.04-0.094c0.31-.591.6-1.193,0.86-1.813,0.04-.1.07-0.2,0.11-0.305,0.22-.558.43-1.121,0.61-1.7,0.06-.2.1-0.411,0.16-0.615,0.13-.49.27-0.978,0.37-1.48,0.07-.353.11-0.716,0.17-1.073s0.12-.735.16-1.11a21.083,21.083,0,0,0,.12-2.258,22.52,22.52,0,0,0-22.52-22.475h0a22.519,22.519,0,0,0-22.51,22.475,21.09,21.09,0,0,0,.11,2.258c0.04,0.375.11,0.739,0.17,1.11s0.09,0.72.16,1.073c0.1,0.5.24,0.99,0.37,1.48,0.06,0.2.1,0.414,0.16,0.615,0.18,0.579.39,1.142,0.61,1.7,0.04,0.1.07,0.2,0.11,0.305,0.26,0.616.55,1.215,0.85,1.8,0.02,0.034.03,0.071,0.05,0.105a22.741,22.741,0,0,0,3.69,5.085v0.007h0a22.593,22.593,0,0,0,8.87,5.678h0c0.52,0.18,1.05.337,1.59,0.48,0.12,0.034.25,0.066,0.38,0.1,0.46,0.114.92,0.218,1.39,0.3,0.29,0.054.58,0.091,0.87,0.133,0.35,0.049.7,0.106,1.06,0.139,0.68,0.065,1.37.1,2.07,0.1h0.01c0.69,0,1.38-.039,2.06-0.1C1037.95,461.838,1038.3,461.781,1038.65,461.732Zm-1.37-41.714c1.98,1.427,5.86,5.018,7.55,12.1h-8.44V419.969C1036.69,419.982,1036.98,420,1037.28,420.018Zm15.31,29.076c-0.12.216-.26,0.423-0.39,0.633-0.2.32-.4,0.636-0.62,0.943-0.21.292-.42,0.578-0.64,0.857-0.15.191-.31,0.375-0.46,0.56-0.28.32-.55,0.638-0.84,0.941a19.671,19.671,0,0,1-8.89,5.319,20.4,20.4,0,0,0,5.37-8.48h0c0.27-.8.52-1.635,0.73-2.543h6.64A19.09,19.09,0,0,1,1052.59,449.094Zm-7.41-15.241a32.778,32.778,0,0,1,.47,5.586,35.381,35.381,0,0,1-.52,6.145h-8.74V433.853h8.79Zm-8.79,25.178V447.324h8.37c-1.75,7.128-5.62,10.429-7.53,11.664Q1036.81,459.014,1036.39,459.031Zm18.74-19.531a19.518,19.518,0,0,1-.25,3.078c0,0.029-.01.057-0.01,0.086a20.3,20.3,0,0,1-.69,2.821c-0.01.032-.02,0.066-0.03,0.1h-6.96a36.888,36.888,0,0,0,.5-6.145,34.3,34.3,0,0,0-.44-5.586h7.04A19.518,19.518,0,0,1,1055.13,439.5Zm-8.23-7.387a23.43,23.43,0,0,0-5.86-11.353c0.44,0.13.88,0.276,1.31,0.437,0.17,0.063.34,0.113,0.51,0.18,0.54,0.218,1.06.472,1.57,0.734,0.15,0.078.31,0.145,0.46,0.227,0.5,0.272.98,0.579,1.45,0.893,0.15,0.1.31,0.186,0.46,0.289,0.45,0.318.88,0.669,1.3,1.023,0.15,0.123.3,0.233,0.45,0.361,0.4,0.356.77,0.743,1.14,1.131,0.14,0.149.3,0.284,0.43,0.437,0.35,0.39.67,0.809,0.99,1.226,0.13,0.173.28,0.334,0.41,0.511,0.31,0.438.58,0.9,0.86,1.367,0.1,0.176.22,0.34,0.32,0.519a18.523,18.523,0,0,1,.97,2.018h-6.77Zm-13.08,26.875c-1.92-1.235-5.79-4.536-7.54-11.664h8.37v11.707C1034.37,459.019,1034.09,459.005,1033.82,458.988Zm-13.25-6.9c-0.16-.185-0.32-0.369-0.47-0.56-0.22-.279-0.43-0.565-0.64-0.857-0.21-.308-0.42-0.624-0.62-0.945-0.13-.209-0.26-0.415-0.39-0.63-0.32-.575-0.63-1.162-0.9-1.771h6.65a24.133,24.133,0,0,0,.72,2.543h0a22.741,22.741,0,0,0,5.37,8.48,19.671,19.671,0,0,1-8.89-5.319C1021.11,452.725,1020.84,452.407,1020.57,452.087Zm5.35-6.5a34.371,34.371,0,0,1-.53-6.145,32.778,32.778,0,0,1,.47-5.586h8.79v11.731h-8.73Zm0.29-13.471c1.69-7.077,5.57-10.668,7.55-12.1,0.3-.02.59-0.036,0.89-0.049v12.144h-8.44Zm-7.87-2.018c0.1-.179.22-0.343,0.32-0.519,0.28-.464.56-0.929,0.87-1.367,0.12-.177.27-0.338,0.4-0.511,0.32-.417.64-0.836,0.99-1.226,0.14-.153.29-0.288,0.43-0.437,0.37-.388.74-0.775,1.15-1.131,0.14-.128.3-0.238,0.44-0.361,0.43-.354.85-0.7,1.31-1.023,0.14-.1.3-0.19,0.45-0.289,0.47-.314.95-0.621,1.45-0.893,0.15-.082.31-0.149,0.46-0.227,0.52-.262,1.03-0.516,1.57-0.734,0.17-.067.34-0.117,0.51-0.18q0.645-.241,1.32-0.437a23.516,23.516,0,0,0-5.87,11.353h-6.77A20.573,20.573,0,0,1,1018.34,430.1Zm-1.59,3.758h7.04a34.3,34.3,0,0,0-.44,5.586,36.888,36.888,0,0,0,.5,6.145h-6.96a0.364,0.364,0,0,0-.03-0.1,20.346,20.346,0,0,1-.69-2.824c0-.027-0.01-0.053-0.01-0.08A19.3,19.3,0,0,1,1016.75,433.853Z" transform="translate(-1013 -417.031)"/>
</svg>
