<svg xmlns="http://www.w3.org/2000/svg" width="45.031" height="44.938" viewBox="0 0 45.031 44.938">
  <metadata><?xpacket begin="﻿" id="W5M0MpCehiHzreSzNTczkc9d"?>
<x:xmpmeta xmlns:x="adobe:ns:meta/" x:xmptk="Adobe XMP Core 5.6-c138 79.159824, 2016/09/14-01:09:01        ">
   <rdf:RDF xmlns:rdf="http://www.w3.org/1999/02/22-rdf-syntax-ns#">
      <rdf:Description rdf:about=""/>
   </rdf:RDF>
</x:xmpmeta>
                                                                                                    
                                                                                                    
                                                                                                    
                                                                                                    
                                                                                                    
                                                                                                    
                                                                                                    
                                                                                                    
                                                                                                    
                                                                                                    
                                                                                                    
                                                                                                    
                                                                                                    
                                                                                                    
                                                                                                    
                                                                                                    
                                                                                                    
                                                                                                    
                                                                                                    
                                                                                                    
                           
<?xpacket end="w"?></metadata>
<defs>
    <style>
      .cls-1 {
        fill: #4a92ff;
        fill-rule: evenodd;
      }
    </style>
  </defs>
  <path id="形状_2" data-name="形状 2" class="cls-1" d="M620.652,461.732c0.29-.042.582-0.079,0.868-0.133,0.47-.084.932-0.188,1.392-0.3,0.128-.032.256-0.064,0.383-0.1a22.581,22.581,0,0,0,14.145-11.251c0.016-.031.029-0.063,0.045-0.094,0.309-.591.6-1.193,0.853-1.813,0.042-.1.072-0.2,0.112-0.305,0.221-.558.433-1.121,0.609-1.7,0.062-.2.1-0.411,0.159-0.615,0.134-.49.272-0.978,0.374-1.48,0.071-.353.11-0.716,0.164-1.073s0.129-.735.166-1.11a22.507,22.507,0,0,0-22.4-24.733h0a22.463,22.463,0,0,0-22.4,24.733c0.037,0.375.11,0.739,0.166,1.11s0.093,0.72.165,1.073c0.1,0.5.239,0.99,0.373,1.48,0.056,0.2.1,0.414,0.159,0.615,0.177,0.579.388,1.142,0.609,1.7,0.04,0.1.07,0.2,0.112,0.305,0.255,0.616.542,1.215,0.848,1.8,0.018,0.034.033,0.071,0.051,0.105a22.56,22.56,0,0,0,3.684,5.085l0.006,0.007h0a22.536,22.536,0,0,0,8.87,5.678h0c0.519,0.18,1.047.337,1.582,0.48,0.127,0.034.255,0.066,0.383,0.1,0.46,0.114.922,0.218,1.392,0.3,0.287,0.054.578,0.091,0.868,0.133,0.352,0.049.7,0.106,1.058,0.139,0.681,0.065,1.37.1,2.068,0.1h0.01c0.7,0,1.387-.039,2.068-0.1C619.951,461.838,620.3,461.781,620.652,461.732Zm-1.375-41.714c1.98,1.427,5.861,5.018,7.552,12.1h-8.436V419.969Q618.835,419.989,619.277,420.018Zm15.313,29.076c-0.123.216-.259,0.423-0.39,0.633-0.2.32-.4,0.636-0.62,0.943q-0.309.438-.64,0.857c-0.15.191-.307,0.375-0.464,0.56-0.272.32-.546,0.638-0.837,0.941a19.651,19.651,0,0,1-8.887,5.319,20.42,20.42,0,0,0,5.369-8.48h0c0.267-.8.517-1.635,0.725-2.543h6.644A19.34,19.34,0,0,1,634.59,449.094Zm-7.412-15.241a32.571,32.571,0,0,1,.471,5.586,34.791,34.791,0,0,1-.522,6.145h-8.734V433.853h8.785Zm-8.785,25.178V447.324h8.365c-1.744,7.128-5.62,10.429-7.533,11.664Q618.81,459.014,618.393,459.031ZM637.132,439.5a19.283,19.283,0,0,1-.25,3.078c0,0.029-.009.057-0.014,0.086a19.622,19.622,0,0,1-.691,2.821c-0.01.032-.018,0.066-0.028,0.1h-6.96a36.793,36.793,0,0,0,.5-6.145,34.788,34.788,0,0,0-.433-5.586h7.038A19.484,19.484,0,0,1,637.132,439.5Zm-8.234-7.387a23.456,23.456,0,0,0-5.861-11.353q0.667,0.195,1.314.437c0.169,0.063.343,0.113,0.51,0.18,0.537,0.218,1.055.472,1.568,0.734,0.153,0.078.314,0.145,0.465,0.227,0.5,0.272.977,0.579,1.449,0.893,0.149,0.1.307,0.186,0.454,0.289,0.452,0.318.878,0.669,1.3,1.023,0.147,0.123.305,0.233,0.448,0.361,0.4,0.356.773,0.743,1.144,1.131,0.142,0.149.3,0.284,0.434,0.437,0.35,0.39.667,0.809,0.986,1.226,0.132,0.173.279,0.334,0.4,0.511,0.312,0.438.587,0.9,0.863,1.367,0.1,0.176.225,0.34,0.324,0.519a19.487,19.487,0,0,1,.969,2.018H628.9Zm-13.081,26.875c-1.913-1.235-5.788-4.536-7.533-11.664h8.365v11.707Q616.232,459.013,615.817,458.988Zm-13.251-6.9c-0.157-.185-0.314-0.369-0.464-0.56-0.221-.279-0.433-0.565-0.64-0.857-0.216-.308-0.422-0.624-0.621-0.945-0.13-.209-0.266-0.415-0.388-0.63a19.366,19.366,0,0,1-.9-1.771H606.2c0.207,0.908.458,1.742,0.725,2.543h0a22.741,22.741,0,0,0,5.369,8.48,19.661,19.661,0,0,1-8.887-5.319C603.112,452.725,602.839,452.407,602.566,452.087Zm5.349-6.5a34.791,34.791,0,0,1-.522-6.145,32.571,32.571,0,0,1,.471-5.586h8.785v11.731h-8.734Zm0.3-13.471c1.691-7.077,5.572-10.668,7.552-12.1q0.441-.03.884-0.049v12.144h-8.436ZM600.34,430.1c0.1-.179.22-0.343,0.324-0.519,0.276-.464.551-0.929,0.863-1.367,0.126-.177.273-0.338,0.4-0.511,0.319-.417.636-0.836,0.986-1.226,0.137-.153.292-0.288,0.434-0.437,0.371-.388.743-0.775,1.145-1.131,0.143-.128.3-0.238,0.447-0.361,0.423-.354.849-0.7,1.3-1.023,0.147-.1.3-0.19,0.454-0.289,0.472-.314.949-0.621,1.449-0.893,0.151-.082.312-0.149,0.465-0.227,0.513-.262,1.031-0.516,1.568-0.734,0.167-.067.341-0.117,0.51-0.18q0.646-.241,1.314-0.437a23.464,23.464,0,0,0-5.86,11.353h-6.774A19.487,19.487,0,0,1,600.34,430.1Zm-1.59,3.758h7.038a34.788,34.788,0,0,0-.433,5.586,36.793,36.793,0,0,0,.5,6.145h-6.959c-0.011-.033-0.018-0.067-0.029-0.1a19.532,19.532,0,0,1-.692-2.824c0-.027-0.008-0.053-0.013-0.08A19.3,19.3,0,0,1,598.75,433.853Z" transform="translate(-595 -417.031)"/>
</svg>
