<svg xmlns="http://www.w3.org/2000/svg" width="43.344" height="50" viewBox="0 0 43.344 50">
  <metadata><?xpacket begin="﻿" id="W5M0MpCehiHzreSzNTczkc9d"?>
<x:xmpmeta xmlns:x="adobe:ns:meta/" x:xmptk="Adobe XMP Core 5.6-c138 79.159824, 2016/09/14-01:09:01        ">
   <rdf:RDF xmlns:rdf="http://www.w3.org/1999/02/22-rdf-syntax-ns#">
      <rdf:Description rdf:about=""/>
   </rdf:RDF>
</x:xmpmeta>
                                                                                                    
                                                                                                    
                                                                                                    
                                                                                                    
                                                                                                    
                                                                                                    
                                                                                                    
                                                                                                    
                                                                                                    
                                                                                                    
                                                                                                    
                                                                                                    
                                                                                                    
                                                                                                    
                                                                                                    
                                                                                                    
                                                                                                    
                                                                                                    
                                                                                                    
                                                                                                    
                           
<?xpacket end="w"?></metadata>
<defs>
    <style>
      .cls-1 {
        fill: #28a9af;
        fill-rule: evenodd;
      }
    </style>
  </defs>
  <path id="形状_217" data-name="形状 217" class="cls-1" d="M716.851,269.1h-1.719a1.022,1.022,0,0,0-.912.754v4.86c-0.259-.266-1.16-0.509-1.433-0.73v-8.217a1.205,1.205,0,0,0-1.122-1.271H709.69a1.094,1.094,0,0,0-.936.573v6.989c-0.264-.04-1.163-0.069-1.429-0.09-0.063,0-.006-8.5-0.006-8.5a1.205,1.205,0,0,0-1.12-1.272h-1.977a1.2,1.2,0,0,0-1.119,1.272v8.971c-0.329.085-1.287,0.176-1.6,0.275V256.553a1.282,1.282,0,0,0-1.287-1.272h-2.254a1.282,1.282,0,0,0-1.287,1.272v16.361c0,0.226-.038,1.576,0,1.975l-4.6-4.965a1.374,1.374,0,0,0-1.916-.142l-2.371,1.812a1.341,1.341,0,0,0-.344,1.87l10.071,12.887c0.427,0.478.9,1.078,1.355,1.582l0.233,0.26L699.057,292h15.178s3.613-11.828,3.613-12.178v-9.453A1.162,1.162,0,0,0,716.851,269.1ZM714.737,242H682.6a5.573,5.573,0,0,0-5.6,5.535v7.507a5.573,5.573,0,0,0,5.6,5.535h11.629v-3.72H682.6a1.827,1.827,0,0,1-1.836-1.815v-7.507a1.827,1.827,0,0,1,1.836-1.815h32.14a1.828,1.828,0,0,1,1.836,1.815v7.507a1.828,1.828,0,0,1-1.836,1.815h-10.19v3.72h10.19a5.572,5.572,0,0,0,5.6-5.535v-7.507A5.572,5.572,0,0,0,714.737,242Z" transform="translate(-677 -242)"/>
</svg>
