<?xml version="1.0" encoding="utf-8"?>
<!-- Generator: Adobe Illustrator 18.0.0, SVG Export Plug-In . SVG Version: 6.00 Build 0)  -->
<!DOCTYPE svg PUBLIC "-//W3C//DTD SVG 1.1//EN" "http://www.w3.org/Graphics/SVG/1.1/DTD/svg11.dtd">
<svg version="1.1" id="图层_1" xmlns="http://www.w3.org/2000/svg" xmlns:xlink="http://www.w3.org/1999/xlink" x="0px" y="0px"
	 viewBox="0 0 162 62" enable-background="new 0 0 162 62" xml:space="preserve">
<g>
	<path fill="#FFFFFF" d="M120.3,26.9v26.3H117V26.9L120.3,26.9z M126.7,22h6.8v-0.9c0-1.3-1.1-2.4-2.4-2.4h-4.5l0-5.7
		c0-1.3-1.1-2.4-2.4-2.4l-2.4,0l0,8h-6.5V22h6.5l0,31.2h4.7 M138.4,12.2v3.2l10.7,0l2.8,19.7h4.7l-2.9-20.9c-0.2-1.2-1.2-2-2.3-2
		H138.4z M149.8,38.5l1.6,11.4l-11,0l2.1-14.8h-2.5l2.3-16.4h-4.7l-2.3,16.4c0,0,2.5,0,2.5,0l-2.5,18h21.4l-1.8-12.6
		c-0.2-1.2-1.2-2-2.3-2H149.8z M128.6,26.9v26.3h3.2V26.9L128.6,26.9z M104,15.5H71.2l0-3.3h30.4c1.3,0,2.4,1.1,2.4,2.4L104,15.5z
		 M74.7,50l2.8-19.8h28.2v-0.9c0-1.3-1.1-2.4-2.4-2.4H69.5v3.2h3.2l-3.2,23h29.2h7l-1.8-12.6c-0.2-1.2-1.2-2-2.3-2h-2.7l1.6,11.4
		H74.7z"/>
	<path fill="#4A92FF" d="M49.9,33.9h4.2c1.6,0,2.5-1.8,1.6-3.1l-1.7-2.3L49.9,33.9z"/>
	<path fill="#4A92FF" d="M4,59.8l36.6-49.1l0,0l8.6,11.6c0.9,1.3,0.9,3,0,4.2L28.1,54.8l0,0l6.2,0l0,0L46.8,38l0,0l13.9,18.6
		c1,1.3,0,3.1-1.6,3.1H4z"/>
	<path fill="#00BD85" d="M33.5,1L9,33.9h8.2L36,8.6c0.9-1.3,0.9-3,0-4.2L33.5,1z"/>
</g>
</svg>
