<svg xmlns="http://www.w3.org/2000/svg" width="45" height="50" viewBox="0 0 45 50">
  <metadata><?xpacket begin="﻿" id="W5M0MpCehiHzreSzNTczkc9d"?>
<x:xmpmeta xmlns:x="adobe:ns:meta/" x:xmptk="Adobe XMP Core 5.6-c138 79.159824, 2016/09/14-01:09:01        ">
   <rdf:RDF xmlns:rdf="http://www.w3.org/1999/02/22-rdf-syntax-ns#">
      <rdf:Description rdf:about=""/>
   </rdf:RDF>
</x:xmpmeta>
                                                                                                    
                                                                                                    
                                                                                                    
                                                                                                    
                                                                                                    
                                                                                                    
                                                                                                    
                                                                                                    
                                                                                                    
                                                                                                    
                                                                                                    
                                                                                                    
                                                                                                    
                                                                                                    
                                                                                                    
                                                                                                    
                                                                                                    
                                                                                                    
                                                                                                    
                                                                                                    
                           
<?xpacket end="w"?></metadata>
<defs>
    <style>
      .cls-1 {
        fill: #4a92ff;
        fill-rule: evenodd;
      }
    </style>
  </defs>
  <path id="形状_214" data-name="形状 214" class="cls-1" d="M1006.54,281.557s-0.01-10.348,0-10.406a5.5,5.5,0,0,1,3.02-4.73s-5.56-.216-7.84,1.324a9.646,9.646,0,0,0-4.257,6.244v7.568h-6.048l10.465,12.11,10.71-12.11h-6.05Zm13.01-3.344h-9.82V274.8h9.82a1.539,1.539,0,0,0,1.54-1.536V248.617a1.539,1.539,0,0,0-1.54-1.536h-35.1a1.537,1.537,0,0,0-1.534,1.536v24.646a1.537,1.537,0,0,0,1.534,1.536h10.02v3.414h-10.02a4.953,4.953,0,0,1-4.945-4.95V248.617a4.953,4.953,0,0,1,4.945-4.95h35.1a4.955,4.955,0,0,1,4.95,4.95v24.646A4.955,4.955,0,0,1,1019.55,278.213Zm-6.09-22.942H990.54V252.88h22.92v2.391Zm0,6.222H990.54V259.1h22.92v2.391Z" transform="translate(-979.5 -243.656)"/>
</svg>
