<svg xmlns="http://www.w3.org/2000/svg" viewBox="0 0 328.67 289"><title>window</title><path d="M290,339V75l7-6H593l11,10v78l8,6-8,6V341l-8,8H300Z" transform="translate(-285 -64)" style="fill:#2b2c40;fill-rule:evenodd"/><g style="opacity:0.5"><path d="M593,69l11,10v78l8,6-8,6V341l-8,8H300l-10-10V75l7-6H593m.39-1H296.63l-.28.24-7,6-.35.3V339.41l.29.29,10,10,.29.29H596.41l.29-.29,8-8,.29-.29V169.5l7.6-5.7,1.07-.8-1.07-.8-7.6-5.7V78.56l-.33-.3-11-10-.29-.26Z" transform="translate(-285 -64)" style="fill:#4a92ff"/></g><polygon points="5 14 14 5 141 5 141 4.5 141 3 64.5 3 60 0 11 0 0 10 0 32 3 36.5 3 84 4.5 84 5 84 5 14" style="fill:#4a92ff"/><polygon points="321 206 319.5 206 319 206 319 251 319 276 310 285 257 285 257 285 183 285 183 285.5 183 287 260 287 263 289 312 289 323 279 323 257 321 254 321 206" style="fill:#4a92ff"/></svg>